<?xml version="1.0" encoding="UTF-8"?>
<!DOCTYPE svg PUBLIC "-//W3C//DTD SVG 1.1//EN" "http://www.w3.org/Graphics/SVG/1.1/DTD/svg11.dtd">
<!-- Creator: CorelDRAW 2018 (64 Bit) -->
<svg xmlns="http://www.w3.org/2000/svg" xml:space="preserve" width="745px" height="165px" version="1.1" style="shape-rendering:geometricPrecision; text-rendering:geometricPrecision; image-rendering:optimizeQuality; fill-rule:evenodd; clip-rule:evenodd"
viewBox="0 0 745 165"
 xmlns:xlink="http://www.w3.org/1999/xlink">
 <defs>
  <style type="text/css">
   <![CDATA[
    .fil0 {fill:none}
    .fil1 {fill:black}
    .fil3 {fill:#FEFEFE;fill-rule:nonzero}
    .fil2 {fill:black;fill-rule:nonzero}
   ]]>
  </style>
 </defs>
 <g id="Camada_x0020_1">
  <metadata id="CorelCorpID_0Corel-Layer"/>
  <polygon class="fil0" points="0,-0.87 745,-0.87 745,164.13 0,164.13 "/>
  <polygon class="fil1" points="687.93,136.24 724.61,136.24 724.61,25.46 687.93,25.46 "/>
  <g>
   <path class="fil2" d="M60.26 93.65l21.08 0 21.92 0 -21.37 -42.16 -21.63 42.16zm-7.47 14.5l-14.2 27.96 -18.2 0 55.96 -109.98 10.82 0 56.39 109.98 -18.41 0 -14.29 -27.96 -58.07 0z"/>
  </g>
  <path class="fil2" d="M155.61 26.4l17.14 0 0 70.42c0,10.55 2.51,17.67 7.48,21.36 4.96,3.69 14.85,5.54 29.67,5.54 14.85,0 24.79,-1.85 29.76,-5.54 4.96,-3.69 7.47,-10.81 7.47,-21.36l0 -70.42 17.14 0 0 74.9c0,13.5 -4.26,23.21 -12.79,29.23 -8.57,6.02 -22.46,9.01 -41.8,9.01 -19.21,0 -33.06,-2.94 -41.46,-8.88 -8.39,-5.93 -12.61,-15.69 -12.61,-29.36l0 -74.9z"/>
  <path class="fil2" d="M319.44 72.02l58.47 0c5.93,0 10.46,-1.27 13.58,-3.86 3.12,-2.6 4.7,-6.29 4.7,-11.13 0,-4.79 -1.58,-8.48 -4.7,-10.98 -3.12,-2.55 -7.65,-3.83 -13.58,-3.83l-58.47 0 0 29.8zm0 16.09l0 48 -17.14 0 0 -109.71 75.61 0c11.25,0 20.04,2.72 26.41,8.13 6.38,5.4 9.54,12.92 9.54,22.55 0,7.78 -2.5,14.55 -7.56,20.26 -5.01,5.72 -11.56,9.23 -19.65,10.51l30.64 48.26 -18.68 0 -31.21 -48 -47.96 0z"/>
  <polygon class="fil2" points="444.99,136.11 444.99,26.13 548.11,26.13 548.11,42.22 462.13,42.22 462.13,69.65 518.58,69.65 518.58,85.48 462.13,85.48 462.13,120.29 552.86,120.29 552.86,136.11 "/>
  <path class="fil2" d="M596.17 93.65l42.99 0 -21.37 -42.15 -21.62 42.15zm-39.87 42.46l55.95 -109.98 10.82 0 56.4 109.98 -18.42 0 -14.29 -27.95 -58.07 0 -14.2 27.95 -18.19 0z"/>
  <path class="fil3" d="M698.59 123.75c0,-2.88 0.83,-5.2 2.47,-6.98 1.65,-1.76 3.79,-2.64 6.43,-2.64 2.66,0 4.78,0.87 6.37,2.6 1.59,1.73 2.39,4.07 2.39,7.02l0 7.82 -17.66 0 0 -7.82zm2.54 -0.04l0 5.11 12.58 0 0 -5.11c0,-2.09 -0.56,-3.75 -1.69,-4.95 -1.12,-1.19 -2.65,-1.79 -4.58,-1.79 -1.86,0 -3.38,0.62 -4.55,1.86 -1.17,1.24 -1.76,2.86 -1.76,4.88zm4.83 -16.75l0 -9.38c0,-0.96 -0.2,-1.68 -0.62,-2.18 -0.42,-0.5 -1.01,-0.76 -1.79,-0.76 -0.77,0 -1.36,0.26 -1.76,0.76 -0.41,0.5 -0.61,1.22 -0.61,2.18l0 9.38 4.78 0zm2.58 0l7.71 0 0 2.76 -17.61 0 0 -12.14c0,-1.81 0.43,-3.22 1.3,-4.24 0.87,-1.03 2.08,-1.54 3.62,-1.54 1.25,0 2.34,0.41 3.25,1.22 0.92,0.8 1.49,1.86 1.69,3.15l7.75 -4.92 0 3 -7.71 5.01 0 7.7zm7.71 -20.15l-17.66 0 0 -16.56 2.59 0 0 13.81 4.4 0 0 -9.07 2.54 0 0 9.07 5.59 0 0 -14.57 2.54 0 0 17.32zm-2.26 -19.74l-2.31 -1.34c0.81,-1.21 1.44,-2.54 1.9,-3.97 0.46,-1.44 0.68,-2.81 0.68,-4.12 0,-1.57 -0.32,-2.85 -0.96,-3.81 -0.64,-0.97 -1.46,-1.45 -2.46,-1.45 -1.01,0 -1.75,0.45 -2.25,1.33 -0.48,0.88 -0.75,2.27 -0.81,4.18 -0.04,3.21 -0.41,5.42 -1.11,6.62 -0.71,1.2 -1.87,1.8 -3.5,1.8 -1.51,0 -2.74,-0.65 -3.66,-1.97 -0.92,-1.32 -1.38,-3.09 -1.38,-5.32 0,-1.51 0.21,-2.98 0.64,-4.42 0.42,-1.42 1.06,-2.8 1.9,-4.12l2.28 1.39c-0.74,1.1 -1.31,2.28 -1.72,3.55 -0.4,1.27 -0.6,2.49 -0.6,3.64 0,1.35 0.23,2.43 0.69,3.24 0.48,0.81 1.08,1.22 1.84,1.22 0.78,0 1.34,-0.41 1.67,-1.23 0.33,-0.82 0.5,-2.24 0.5,-4.27 0,-2.82 0.47,-4.93 1.42,-6.37 0.95,-1.43 2.37,-2.15 4.24,-2.15 1.67,0 3.05,0.73 4.16,2.18 1.1,1.46 1.65,3.34 1.65,5.66 0,1.71 -0.25,3.4 -0.73,5.1 -0.49,1.68 -1.18,3.23 -2.08,4.63zm0 -20.22l-2.31 -1.34c0.81,-1.22 1.44,-2.54 1.9,-3.98 0.46,-1.44 0.68,-2.81 0.68,-4.12 0,-1.57 -0.32,-2.84 -0.96,-3.81 -0.64,-0.97 -1.46,-1.45 -2.46,-1.45 -1.01,0 -1.75,0.45 -2.25,1.33 -0.48,0.88 -0.75,2.27 -0.81,4.18 -0.04,3.22 -0.41,5.43 -1.11,6.63 -0.71,1.2 -1.87,1.8 -3.5,1.8 -1.51,0 -2.74,-0.66 -3.66,-1.98 -0.92,-1.32 -1.38,-3.09 -1.38,-5.32 0,-1.51 0.21,-2.98 0.64,-4.41 0.42,-1.43 1.06,-2.8 1.9,-4.13l2.28 1.39c-0.74,1.1 -1.31,2.28 -1.72,3.56 -0.4,1.27 -0.6,2.48 -0.6,3.64 0,1.34 0.23,2.42 0.69,3.23 0.48,0.81 1.08,1.22 1.84,1.22 0.78,0 1.34,-0.41 1.67,-1.23 0.33,-0.82 0.5,-2.24 0.5,-4.27 0,-2.81 0.47,-4.93 1.42,-6.36 0.95,-1.44 2.37,-2.16 4.24,-2.16 1.67,0 3.05,0.73 4.16,2.19 1.1,1.45 1.65,3.33 1.65,5.65 0,1.71 -0.25,3.41 -0.73,5.1 -0.49,1.69 -1.18,3.23 -2.08,4.64z"/>
 </g>
</svg>
