<svg xmlns="http://www.w3.org/2000/svg" xmlns:xlink="http://www.w3.org/1999/xlink" width="1920" zoomAndPan="magnify" viewBox="0 0 1440 809.999993" height="1080" preserveAspectRatio="xMidYMid meet" version="1.0"><defs><g/><clipPath id="fb005e5df5"><path d="M 0.101562 87 L 271 87 L 271 432 L 0.101562 432 Z M 0.101562 87 " clip-rule="nonzero"/></clipPath><clipPath id="967fd5ffae"><path d="M 42 0.0390625 L 313.640625 0.0390625 L 313.640625 345 L 42 345 Z M 42 0.0390625 " clip-rule="nonzero"/></clipPath><clipPath id="9a9e456185"><rect x="0" width="234" y="0" height="53"/></clipPath><clipPath id="6b234b123d"><path d="M 277 79 L 589.679688 79 L 589.679688 345 L 277 345 Z M 277 79 " clip-rule="nonzero"/></clipPath><clipPath id="b4e6081b49"><rect x="0" width="313" y="0" height="266"/></clipPath><clipPath id="7a51c5c915"><rect x="0" width="590" y="0" height="433"/></clipPath></defs><g transform="matrix(1, 0, 0, 1, 426, 191)"><g clip-path="url(#7a51c5c915)"><g clip-path="url(#fb005e5df5)"><path fill="#000000" d="M 226.582031 346.132812 C 226.582031 303.304688 226.582031 261.128906 226.582031 218.945312 C 226.035156 218.738281 225.492188 218.53125 224.949219 218.316406 C 202.523438 246.476562 180.085938 274.628906 156.84375 303.808594 C 148.574219 293.503906 140.648438 283.640625 132.019531 272.894531 C 89.714844 326.058594 47.746094 378.78125 5.429688 431.953125 C 3.5 430.40625 1.957031 429.171875 0.121094 427.699219 C 90.191406 314.460938 179.929688 201.632812 270.804688 87.371094 C 270.804688 174.710938 270.804688 260.210938 270.804688 346.132812 C 256.285156 346.132812 242.140625 346.132812 226.582031 346.132812 Z M 226.582031 346.132812 " fill-opacity="1" fill-rule="nonzero"/></g><g clip-path="url(#967fd5ffae)"><path fill="#000000" d="M 42.902344 88.550781 C 75.773438 129.855469 107.617188 169.875 140.171875 210.785156 C 142.644531 207.816406 144.816406 205.285156 146.886719 202.683594 C 199.09375 137.011719 251.285156 71.304688 303.574219 5.691406 C 305.878906 2.808594 308.0625 -3.863281 313.824219 3.734375 C 248.203125 86.238281 182.53125 168.808594 116.105469 252.332031 C 106.847656 240.867188 98.03125 229.933594 88.1875 217.746094 C 87.8125 220.949219 87.410156 222.785156 87.410156 224.632812 C 87.371094 243.667969 87.605469 262.710938 87.214844 281.738281 C 87.128906 285.65625 85.65625 290.207031 83.289062 293.289062 C 70.445312 310.066406 57.113281 326.480469 42.894531 344.34375 C 42.902344 258.617188 42.902344 174.511719 42.902344 88.550781 Z M 42.902344 88.550781 " fill-opacity="1" fill-rule="nonzero"/></g><g transform="matrix(1, 0, 0, 1, 342, 81)"><g clip-path="url(#9a9e456185)"><g fill="#000000" fill-opacity="1"><g transform="translate(0.301374, 39.186636)"><g><path d="M 2.902344 -25.378906 L 2.902344 0 L 5.980469 0 L 5.980469 -25.378906 Z M 2.902344 -25.378906 "/></g></g></g><g fill="#000000" fill-opacity="1"><g transform="translate(9.183718, 39.186636)"><g><path d="M 22.117188 -25.378906 L 22.117188 -6.488281 L 2.902344 -26.648438 L 2.902344 0 L 5.980469 0 L 5.980469 -18.890625 L 25.199219 1.269531 L 25.199219 -25.378906 Z M 22.117188 -25.378906 "/></g></g></g><g fill="#000000" fill-opacity="1"><g transform="translate(37.280926, 39.186636)"><g><path d="M 0.363281 -22.480469 L 6.886719 -22.480469 L 6.886719 0 L 9.96875 0 L 9.96875 -22.480469 L 16.496094 -22.480469 L 16.496094 -25.378906 L 0.363281 -25.378906 Z M 0.363281 -22.480469 "/></g></g></g><g fill="#000000" fill-opacity="1"><g transform="translate(54.139248, 39.186636)"><g><path d="M 4.605469 0 L 17.402344 0 L 17.402344 -2.902344 L 4.605469 -2.902344 Z M 4.605469 -22.480469 L 17.402344 -22.480469 L 17.402344 -25.378906 L 4.605469 -25.378906 Z M 4.605469 -12.328125 L 16.675781 -12.328125 L 16.675781 -15.226562 L 4.605469 -15.226562 Z M 2.902344 -25.378906 L 2.902344 0 L 5.980469 0 L 5.980469 -25.378906 Z M 2.902344 -25.378906 "/></g></g></g><g fill="#000000" fill-opacity="1"><g transform="translate(74.0792, 39.186636)"><g><path d="M 2.902344 -25.378906 L 2.902344 0 L 15.953125 0 L 15.953125 -2.902344 L 5.980469 -2.902344 L 5.980469 -25.378906 Z M 2.902344 -25.378906 "/></g></g></g><g fill="#000000" fill-opacity="1"><g transform="translate(90.393712, 39.186636)"><g><path d="M 2.902344 -25.378906 L 2.902344 0 L 5.980469 0 L 5.980469 -25.378906 Z M 2.902344 -25.378906 "/></g></g></g><g fill="#000000" fill-opacity="1"><g transform="translate(99.276056, 39.186636)"><g><path d="M 14.683594 -9.96875 L 23.132812 -9.96875 C 22.914062 -8.980469 22.570312 -8.046875 22.097656 -7.179688 C 21.625 -6.308594 21.027344 -5.535156 20.304688 -4.859375 C 19.578125 -4.179688 18.714844 -3.65625 17.710938 -3.28125 C 16.707031 -2.90625 15.578125 -2.71875 14.320312 -2.71875 C 12.53125 -2.71875 10.914062 -3.140625 9.460938 -3.988281 C 8.011719 -4.835938 6.859375 -6.007812 6 -7.503906 C 5.140625 -9.003906 4.714844 -10.730469 4.714844 -12.691406 C 4.714844 -14.671875 5.140625 -16.40625 6 -17.890625 C 6.859375 -19.378906 8.011719 -20.546875 9.460938 -21.390625 C 10.914062 -22.238281 12.53125 -22.660156 14.320312 -22.660156 C 16.253906 -22.660156 17.933594 -22.277344 19.359375 -21.519531 C 20.785156 -20.757812 21.898438 -19.699219 22.695312 -18.34375 L 24.871094 -20.339844 C 24.144531 -21.523438 23.257812 -22.515625 22.207031 -23.3125 C 21.15625 -24.109375 19.972656 -24.714844 18.652344 -25.125 C 17.335938 -25.535156 15.890625 -25.742188 14.320312 -25.742188 C 12.484375 -25.742188 10.78125 -25.421875 9.207031 -24.78125 C 7.636719 -24.140625 6.273438 -23.234375 5.113281 -22.0625 C 3.953125 -20.890625 3.050781 -19.503906 2.410156 -17.910156 C 1.769531 -16.316406 1.449219 -14.574219 1.449219 -12.691406 C 1.449219 -10.804688 1.769531 -9.0625 2.410156 -7.46875 C 3.050781 -5.875 3.953125 -4.488281 5.113281 -3.316406 C 6.273438 -2.144531 7.636719 -1.238281 9.207031 -0.597656 C 10.78125 0.0429688 12.484375 0.363281 14.320312 0.363281 C 16.253906 0.363281 17.976562 0.0078125 19.488281 -0.707031 C 21 -1.421875 22.273438 -2.394531 23.3125 -3.625 C 24.351562 -4.859375 25.136719 -6.265625 25.667969 -7.847656 C 26.199219 -9.433594 26.464844 -11.105469 26.464844 -12.871094 L 14.683594 -12.871094 Z M 14.683594 -9.96875 "/></g></g></g><g fill="#000000" fill-opacity="1"><g transform="translate(127.373264, 39.186636)"><g><path d="M 4.605469 0 L 17.402344 0 L 17.402344 -2.902344 L 4.605469 -2.902344 Z M 4.605469 -22.480469 L 17.402344 -22.480469 L 17.402344 -25.378906 L 4.605469 -25.378906 Z M 4.605469 -12.328125 L 16.675781 -12.328125 L 16.675781 -15.226562 L 4.605469 -15.226562 Z M 2.902344 -25.378906 L 2.902344 0 L 5.980469 0 L 5.980469 -25.378906 Z M 10.515625 -31.359375 L 14.503906 -27.917969 L 16.316406 -29.367188 L 10.515625 -34.441406 L 4.714844 -29.367188 L 6.527344 -27.917969 Z M 10.515625 -31.359375 "/></g></g></g><g fill="#000000" fill-opacity="1"><g transform="translate(147.313216, 39.186636)"><g><path d="M 22.117188 -25.378906 L 22.117188 -6.488281 L 2.902344 -26.648438 L 2.902344 0 L 5.980469 0 L 5.980469 -18.890625 L 25.199219 1.269531 L 25.199219 -25.378906 Z M 22.117188 -25.378906 "/></g></g></g><g fill="#000000" fill-opacity="1"><g transform="translate(175.410434, 39.186636)"><g><path d="M 4.714844 -12.691406 C 4.714844 -14.671875 5.15625 -16.40625 6.035156 -17.890625 C 6.917969 -19.378906 8.074219 -20.546875 9.5 -21.390625 C 10.925781 -22.238281 12.472656 -22.660156 14.140625 -22.660156 C 15.347656 -22.660156 16.453125 -22.503906 17.457031 -22.1875 C 18.460938 -21.875 19.371094 -21.433594 20.195312 -20.863281 C 21.015625 -20.296875 21.71875 -19.636719 22.296875 -18.890625 L 22.296875 -22.949219 C 21.234375 -23.890625 20.074219 -24.59375 18.816406 -25.054688 C 17.558594 -25.511719 16 -25.742188 14.140625 -25.742188 C 12.375 -25.742188 10.726562 -25.421875 9.191406 -24.78125 C 7.65625 -24.140625 6.308594 -23.234375 5.148438 -22.0625 C 3.988281 -20.890625 3.082031 -19.503906 2.429688 -17.910156 C 1.777344 -16.316406 1.449219 -14.574219 1.449219 -12.691406 C 1.449219 -10.804688 1.777344 -9.0625 2.429688 -7.46875 C 3.082031 -5.875 3.988281 -4.488281 5.148438 -3.316406 C 6.308594 -2.144531 7.65625 -1.238281 9.191406 -0.597656 C 10.726562 0.0429688 12.375 0.363281 14.140625 0.363281 C 16 0.363281 17.558594 0.132812 18.816406 -0.328125 C 20.074219 -0.785156 21.234375 -1.488281 22.296875 -2.429688 L 22.296875 -6.488281 C 21.71875 -5.742188 21.015625 -5.082031 20.195312 -4.515625 C 19.371094 -3.945312 18.460938 -3.503906 17.457031 -3.191406 C 16.453125 -2.875 15.347656 -2.71875 14.140625 -2.71875 C 12.472656 -2.71875 10.925781 -3.140625 9.5 -3.988281 C 8.074219 -4.835938 6.917969 -6.007812 6.035156 -7.503906 C 5.15625 -9.003906 4.714844 -10.730469 4.714844 -12.691406 Z M 4.714844 -12.691406 "/></g></g></g><g fill="#000000" fill-opacity="1"><g transform="translate(200.244736, 39.186636)"><g><path d="M 2.902344 -25.378906 L 2.902344 0 L 5.980469 0 L 5.980469 -25.378906 Z M 2.902344 -25.378906 "/></g></g></g><g fill="#000000" fill-opacity="1"><g transform="translate(209.12708, 39.186636)"><g><path d="M 5.328125 -7.613281 L 18.746094 -7.613281 L 17.65625 -10.515625 L 6.417969 -10.515625 Z M 11.964844 -19.652344 L 16.316406 -9.425781 L 16.605469 -8.703125 L 20.304688 0 L 23.746094 0 L 11.964844 -26.648438 L 0.179688 0 L 3.625 0 L 7.394531 -8.917969 L 7.6875 -9.570312 Z M 11.964844 -19.652344 "/></g></g></g></g></g><g clip-path="url(#6b234b123d)"><g transform="matrix(1, 0, 0, 1, 277, 79)"><g clip-path="url(#b4e6081b49)"><g fill="#000000" fill-opacity="1"><g transform="translate(4.799404, 209.821199)"><g><path d="M 119.203125 -35.234375 L 43.078125 -35.234375 L 28.0625 0 L -1.09375 0 L 67.4375 -152.265625 L 95.28125 -152.265625 L 164.015625 0 L 134.4375 0 Z M 109.859375 -57.421875 L 81.140625 -124 L 52.640625 -57.421875 Z M 109.859375 -57.421875 "/></g></g></g><g fill="#000000" fill-opacity="1"><g transform="translate(160.104873, 209.821199)"><g><path d="M 116.375 0 L 75.046875 -57.859375 L 34.15625 0 L 1.953125 0 L 58.515625 -77.65625 L 5 -152.265625 L 36.984375 -152.265625 L 75.921875 -98.109375 L 114.421875 -152.265625 L 145.09375 -152.265625 L 91.796875 -78.75 L 149.015625 0 Z M 116.375 0 "/></g></g></g></g></g></g></g></g></svg>