<?xml version="1.0" encoding="UTF-8"?>
<!DOCTYPE svg PUBLIC "-//W3C//DTD SVG 1.1//EN" "http://www.w3.org/Graphics/SVG/1.1/DTD/svg11.dtd">
<!-- Creator: CorelDRAW 2021.5 -->
<svg xmlns="http://www.w3.org/2000/svg" xml:space="preserve" width="450px" height="300px" version="1.1" style="shape-rendering:geometricPrecision; text-rendering:geometricPrecision; image-rendering:optimizeQuality; fill-rule:evenodd; clip-rule:evenodd"
viewBox="0 0 450 300"
 xmlns:xlink="http://www.w3.org/1999/xlink"
 xmlns:xodm="http://www.corel.com/coreldraw/odm/2003">
 <defs>
  <style type="text/css">
   <![CDATA[
    .fil0 {fill:black;fill-rule:nonzero}
   ]]>
  </style>
 </defs>
 <g id="Camada_x0020_1">
  <metadata id="CorelCorpID_0Corel-Layer"/>
  <path class="fil0" d="M22.89 87.06l4.29 82.56 4.29 -82.56 5.61 -70.31 16.59 0 -17.68 223.23 -18.85 0 -16.35 -223.23 17.86 0 4.24 70.31zm89.86 -57.88l-21.77 0 0 86.75 17.53 0 0 12.43 -17.53 0 0 99.19 21.77 0 0 12.43 -39.59 0 0 -223.23 39.59 0 0 12.43zm50.79 156.44c0,-9.12 -0.52,-16.97 -1.56,-23.49 -0.99,-6.57 -2.36,-12.26 -4.01,-17.15 -1.69,-4.85 -3.67,-9.04 -5.93,-12.56 -2.27,-3.49 -4.43,-6.88 -6.55,-10.14 -2.13,-3.31 -4.25,-6.53 -6.27,-9.75 -2.08,-3.21 -3.96,-6.83 -5.57,-10.88 -1.65,-4.01 -2.96,-8.69 -3.95,-13.98 -0.99,-5.33 -1.51,-11.68 -1.51,-19.08l0 -31.08c0,-2.07 0.33,-4.41 1.03,-7.05 0.71,-2.65 2.03,-5.07 3.96,-7.37 1.94,-2.29 4.62,-4.23 8.11,-5.82 3.44,-1.58 7.96,-2.38 13.48,-2.38 5.56,0 10.04,0.8 13.48,2.38 3.49,1.59 6.17,3.53 8.11,5.82 1.93,2.3 3.25,4.72 3.96,7.37 0.7,2.6 1.03,4.98 1.03,7l0 57.84 -17.81 0 0 -57.79c0,-2.07 -0.24,-3.75 -0.76,-5.07 -0.52,-1.37 -1.18,-2.38 -1.98,-3.13 -0.85,-0.71 -1.74,-1.24 -2.83,-1.54 -1.03,-0.31 -2.12,-0.44 -3.2,-0.44 -1.08,0 -2.17,0.13 -3.21,0.44 -1.08,0.3 -1.97,0.83 -2.82,1.54 -0.8,0.75 -1.46,1.76 -1.98,3.08 -0.52,1.33 -0.76,3.05 -0.76,5.12l0 25.08c0,9.7 0.9,17.81 2.64,24.33 1.79,6.53 4.01,12.17 6.65,17.02 2.68,4.85 5.37,9.34 8.11,13.49 2.73,4.14 5.6,8.42 8.53,12.83 2.92,4.45 5.23,9.69 6.93,15.78 1.65,6.08 2.49,13.66 2.49,22.74l0 50.56c0,1.02 -0.14,2.92 -0.42,5.6 -0.28,2.74 -1.23,5.51 -2.88,8.38 -1.69,2.86 -4.33,5.38 -7.91,7.58 -3.59,2.21 -8.72,3.31 -15.37,3.31 -6.65,0 -11.78,-1.1 -15.37,-3.31 -3.58,-2.2 -6.22,-4.72 -7.87,-7.54 -1.69,-2.86 -2.64,-5.64 -2.92,-8.33 -0.28,-2.73 -0.42,-4.58 -0.42,-5.64l0 -74.37 17.81 0 0 74.37c0,1.01 0.05,2.25 0.15,3.66 0.09,1.45 0.42,2.77 0.94,4.1 0.56,1.28 1.41,2.38 2.59,3.26 1.22,0.93 2.92,1.37 5.09,1.37 2.22,0 3.86,-0.44 5.09,-1.37 1.18,-0.88 2.03,-1.98 2.59,-3.31 0.52,-1.28 0.85,-2.64 0.95,-4.05 0.09,-1.41 0.14,-2.65 0.14,-3.66l0 -33.77zm85.66 -168.87l0 12.43 -17.53 0 0 210.8 -17.82 0 0 -210.8 -17.53 0 0 -12.43 52.88 0zm39.57 0l0 223.23 -17.82 0 0 -223.23 17.82 0zm61.3 20.67c0,-2.03 -0.29,-3.66 -0.9,-4.76 -0.56,-1.1 -1.55,-1.94 -2.92,-2.47 -1.37,-0.48 -3.21,-0.79 -5.42,-0.88 -2.26,-0.09 -5,-0.13 -8.3,-0.13l0 198.37c3.3,0 6.04,-0.05 8.3,-0.14 2.21,-0.09 4.05,-0.4 5.42,-0.88 1.37,-0.53 2.36,-1.37 2.92,-2.47 0.61,-1.14 0.9,-2.73 0.9,-4.8l0 -181.84zm17.81 181.88c0,5.16 -1.03,9.17 -3.06,11.95 -2.03,2.82 -4.71,4.85 -8.01,6.13 -3.35,1.32 -7.12,2.07 -11.36,2.29 -4.24,0.22 -8.58,0.31 -13.01,0.31l-17.72 0 0 -223.23 17.72 0c4.43,0 8.77,0.08 13.01,0.3 4.24,0.22 8.01,0.97 11.36,2.3 3.3,1.28 5.98,3.3 8.01,6.12 2.03,2.78 3.06,6.79 3.06,11.95l0 181.88zm76.95 0.09c0,1.06 -0.14,2.91 -0.43,5.64 -0.28,2.69 -1.22,5.47 -2.87,8.33 -1.7,2.82 -4.34,5.34 -7.92,7.54 -3.58,2.21 -8.72,3.31 -15.37,3.31 -6.64,0 -11.78,-1.1 -15.36,-3.31 -3.58,-2.2 -6.22,-4.72 -7.87,-7.54 -1.7,-2.86 -2.64,-5.64 -2.93,-8.33 -0.28,-2.73 -0.42,-4.58 -0.42,-5.64l0 -181.88c0,-0.71 0.05,-1.72 0.14,-3.09 0.1,-1.41 0.38,-2.91 0.85,-4.63 0.42,-1.67 1.22,-3.39 2.36,-5.15 1.08,-1.77 2.59,-3.35 4.52,-4.85 1.98,-1.46 4.43,-2.65 7.5,-3.53 3.06,-0.92 6.78,-1.37 11.21,-1.37 4.44,0 8.16,0.45 11.22,1.37 3.07,0.88 5.52,2.07 7.49,3.53 1.94,1.5 3.45,3.08 4.58,4.85 1.08,1.76 1.88,3.48 2.31,5.15 0.47,1.72 0.75,3.22 0.85,4.63 0.09,1.37 0.14,2.38 0.14,3.09l0 181.88zm-35.35 0c0,1.01 0.04,2.25 0.14,3.66 0.09,1.41 0.42,2.77 0.94,4.1 0.57,1.28 1.42,2.38 2.59,3.26 1.23,0.93 2.93,1.37 5.09,1.37 2.22,0 3.87,-0.44 5.09,-1.37 1.18,-0.88 2.03,-1.98 2.6,-3.26 0.51,-1.33 0.84,-2.69 0.94,-4.1 0.09,-1.41 0.14,-2.65 0.14,-3.66l0 -181.88c0,-1.01 -0.05,-2.12 -0.14,-3.35 -0.1,-1.19 -0.43,-2.29 -0.94,-3.26 -0.57,-1.02 -1.42,-1.86 -2.6,-2.56 -1.22,-0.66 -2.87,-1.01 -5.09,-1.01 -2.16,0 -3.86,0.35 -5.09,1.01 -1.17,0.7 -2.02,1.54 -2.59,2.56 -0.52,0.97 -0.85,2.07 -0.94,3.26 -0.1,1.23 -0.14,2.34 -0.14,3.35l0 181.88z"/>
  <path class="fil0" d="M189.94 272.87l0 -3.94 -15.53 0 0 -8.08 24.04 0 0 -4.02 -29.9 0 0 28.28 5.86 0 0 -12.24 15.53 0zm72.81 12.24l0 -4.03 -24.39 0 0 -8.25 14.85 0 0 -3.81 -14.85 0 0 -8.17 24.39 0 0 -4.02 -30.25 0 0 28.28 30.25 0zm57.74 0c5.87,0 7.71,-1.8 7.71,-6.12l0 -4.24c0,-3.68 -2.19,-5.82 -6.98,-5.82l-15.74 0c-2.18,0 -3.21,-0.94 -3.21,-2.73l0 -2.27c0,-2.18 0.77,-3.08 3.59,-3.08l20.54 0 0 -4.02 -21.69 0c-6.38,0 -7.92,1.67 -7.92,6.07l0 4.62c0,3.34 2.36,5.39 6.93,5.39l15.88 0c2.09,0 3.12,0.94 3.12,2.74l0 2.35c0,2.23 -0.77,3.08 -3.51,3.08l-22.16 0 0 4.03 23.44 0zm57.03 0l0 -24.26 11.5 0 0 -4.02 -28.96 0 0 4.02 11.64 0 0 24.26 5.82 0zm65.49 0l6.2 0 -13.3 -28.28 -7.36 0 -13.31 28.28 6.42 0 2.44 -5.65 16.43 0 2.48 5.65zm-10.74 -24.39l6.54 14.85 -13 0 6.46 -14.85z"/>
  <path class="fil0" d="M38.15 285.11c7.57,0 10.05,-1.2 10.05,-6.76l0 -14.76c0,-5.61 -2.65,-6.76 -10.05,-6.76l-21.26 0 0 28.28 21.26 0zm4.23 -7.92c0,3.08 -1.54,3.89 -5.73,3.89l-13.9 0 0 -20.23 13.9 0c4.32,0 5.73,0.81 5.73,3.93l0 12.41zm52.73 7.92l0 -4.03 -24.38 0 0 -8.25 14.84 0 0 -3.81 -14.84 0 0 -8.17 24.38 0 0 -4.02 -30.24 0 0 28.28 30.24 0z"/>
  <g id="_3067101661680">
   <polygon class="fil0" points="129.16,262.68 124.43,270.2 119.2,262.68 "/>
   <polygon class="fil0" points="130.82,269.78 127.7,274.68 125.7,271.87 131.59,262.68 142.61,262.68 140.86,265.67 129.94,265.67 131.89,267 140.24,267 138.28,269.94 "/>
   <polygon class="fil0" points="137.26,271.53 131.67,271.53 128.96,275.82 131.84,279.87 "/>
   <polygon class="fil0" points="137.26,271.53 131.67,271.53 128.96,275.82 131.84,279.87 "/>
  </g>
 </g>
</svg>
