<?xml version="1.0" encoding="UTF-8"?>
<!DOCTYPE svg PUBLIC "-//W3C//DTD SVG 1.1//EN" "http://www.w3.org/Graphics/SVG/1.1/DTD/svg11.dtd">
<!-- Creator: CorelDRAW 2021.5 -->
<svg xmlns="http://www.w3.org/2000/svg" xml:space="preserve" width="1400px" height="800px" version="1.1" style="shape-rendering:geometricPrecision; text-rendering:geometricPrecision; image-rendering:optimizeQuality; fill-rule:evenodd; clip-rule:evenodd"
viewBox="0 0 1400 800"
 xmlns:xlink="http://www.w3.org/1999/xlink"
 xmlns:xodm="http://www.corel.com/coreldraw/odm/2003">
 <defs>
  <style type="text/css">
   <![CDATA[
    .str0 {stroke:#A1A1A1;stroke-width:2;stroke-miterlimit:22.9256}
    .fil0 {fill:none}
    .fil5 {fill:black}
    .fil2 {fill:black}
    .fil6 {fill:black}
    .fil4 {fill:#FEFEFE;fill-rule:nonzero}
    .fil7 {fill:#FEFEFE;fill-rule:nonzero}
    .fil1 {fill:black;fill-rule:nonzero}
    .fil3 {fill:white;fill-rule:nonzero}
   ]]>
  </style>
     <clipPath id="id0">
      <path d="M480.49 401.09l439.02 0 0 -322.2 -439.02 0 0 322.2z"/>
     </clipPath>
 </defs>
 <g id="Camada_x0020_1">
  <metadata id="CorelCorpID_0Corel-Layer"/>
  <rect class="fil0" x="250.65" y="40.52" width="896.03" height="683.69"/>
  <rect class="fil0 str0" x="302.33" y="436.21" width="795.34" height="147.59" rx="27.33" ry="27.33"/>
  <g id="_2706233937840">
   <g>
    <g>
    </g>
    <g style="clip-path:url(#id0)">
     <g>
      <path class="fil1" d="M649.09 336.46c0,-31.87 0,-63.26 0,-94.65 -0.41,-0.15 -0.81,-0.31 -1.22,-0.47 -16.68,20.96 -33.38,41.91 -50.67,63.62 -6.16,-7.67 -12.06,-15.01 -18.48,-23 -31.48,39.56 -62.71,78.79 -94.19,118.36 -1.44,-1.16 -2.59,-2.07 -3.95,-3.17 67.02,-84.26 133.79,-168.22 201.42,-253.24 0,64.99 0,128.61 0,192.55 -10.81,0 -21.33,0 -32.91,0zm0 0z"/>
      <path class="fil1" d="M512.41 144.78c24.46,30.74 48.16,60.52 72.38,90.96 1.84,-2.21 3.46,-4.09 5,-6.03 38.85,-48.87 77.68,-97.76 116.59,-146.58 1.7,-2.13 3.31,-7.01 7.49,-1.64l0 0.35c-48.78,61.34 -97.61,122.72 -146.99,184.82 -6.89,-8.54 -13.45,-16.67 -20.77,-25.74 -0.28,2.38 -0.58,3.75 -0.58,5.13 -0.03,14.16 0.14,28.33 -0.15,42.49 -0.06,2.91 -1.16,6.3 -2.92,8.59 -9.55,12.49 -19.48,24.7 -30.06,37.99 0.01,-63.79 0.01,-126.37 0.01,-190.34z"/>
      <path class="fil1" d="M737.36 149.44l0 18.88 2.29 0 0 -18.88 -2.29 0zm0 0z"/>
      <path class="fil1" d="M758.27 149.44l0 14.06 -14.3 -15 0 19.82 2.29 0 0 -14.05 14.3 15 0 -19.83 -2.29 0zm0 0z"/>
      <path class="fil1" d="M762.99 151.6l4.85 0 0 16.72 2.29 0 0 -16.72 4.86 0 0 -2.16 -12 0 0 2.16zm0 0z"/>
      <path class="fil1" d="M778.69 168.32l9.52 0 0 -2.16 -9.52 0 0 2.16zm0 -16.72l9.52 0 0 -2.16 -9.52 0 0 2.16zm0 7.55l8.98 0 0 -2.16 -8.98 0 0 2.16zm-1.27 -9.71l0 18.88 2.29 0 0 -18.88 -2.29 0zm0 0z"/>
      <path class="fil1" d="M792.26 149.44l0 18.88 9.71 0 0 -2.16 -7.42 0 0 -16.72 -2.29 0zm0 0z"/>
      <path class="fil1" d="M804.4 149.44l0 18.88 2.29 0 0 -18.88 -2.29 0zm0 0z"/>
      <path class="fil1" d="M819.77 160.91l6.29 0c-0.16,0.73 -0.42,1.43 -0.77,2.07 -0.35,0.65 -0.8,1.23 -1.33,1.73 -0.55,0.5 -1.19,0.89 -1.93,1.17 -0.75,0.28 -1.59,0.42 -2.53,0.42 -1.33,0 -2.53,-0.31 -3.61,-0.94 -1.08,-0.63 -1.94,-1.51 -2.58,-2.62 -0.64,-1.12 -0.96,-2.4 -0.96,-3.86 0,-1.47 0.32,-2.76 0.96,-3.87 0.64,-1.11 1.5,-1.97 2.58,-2.6 1.08,-0.63 2.28,-0.95 3.61,-0.95 1.44,0 2.69,0.29 3.75,0.85 1.06,0.57 1.89,1.36 2.48,2.36l1.62 -1.48c-0.54,-0.88 -1.2,-1.62 -1.98,-2.21 -0.78,-0.6 -1.66,-1.05 -2.64,-1.35 -0.98,-0.31 -2.06,-0.46 -3.23,-0.46 -1.36,0 -2.63,0.24 -3.8,0.71 -1.17,0.48 -2.19,1.16 -3.05,2.03 -0.86,0.87 -1.53,1.9 -2.01,3.09 -0.48,1.18 -0.71,2.48 -0.71,3.88 0,1.41 0.23,2.7 0.71,3.89 0.48,1.18 1.15,2.21 2.01,3.09 0.86,0.87 1.88,1.54 3.05,2.02 1.17,0.48 2.44,0.72 3.8,0.72 1.44,0 2.72,-0.27 3.85,-0.8 1.12,-0.53 2.07,-1.26 2.84,-2.17 0.78,-0.92 1.36,-1.97 1.76,-3.14 0.39,-1.19 0.59,-2.43 0.59,-3.74l-8.77 0 0 2.16zm0 0z"/>
      <path class="fil1" d="M833.18 168.32l9.52 0 0 -2.16 -9.52 0 0 2.16zm0 -16.72l9.52 0 0 -2.16 -9.52 0 0 2.16zm0 7.55l8.98 0 0 -2.16 -8.98 0 0 2.16zm-1.27 -9.71l0 18.88 2.29 0 0 -18.88 -2.29 0zm5.67 -4.45l2.97 2.56 1.35 -1.08 -4.32 -3.77 -4.32 3.77 1.35 1.08 2.97 -2.56zm0 0z"/>
      <path class="fil1" d="M861.05 149.44l0 14.06 -14.3 -15 0 19.82 2.29 0 0 -14.05 14.3 15 0 -19.83 -2.29 0zm0 0z"/>
      <path class="fil1" d="M869.01 158.88c0,-1.47 0.33,-2.76 0.98,-3.87 0.66,-1.11 1.52,-1.97 2.58,-2.6 1.06,-0.63 2.21,-0.95 3.45,-0.95 0.9,0 1.72,0.12 2.47,0.35 0.75,0.24 1.42,0.57 2.04,0.99 0.61,0.42 1.13,0.91 1.56,1.47l0 -3.02c-0.79,-0.7 -1.65,-1.23 -2.59,-1.57 -0.93,-0.34 -2.09,-0.51 -3.48,-0.51 -1.31,0 -2.54,0.24 -3.68,0.71 -1.14,0.48 -2.15,1.16 -3.01,2.03 -0.86,0.87 -1.54,1.9 -2.02,3.09 -0.49,1.18 -0.73,2.48 -0.73,3.88 0,1.41 0.24,2.7 0.73,3.89 0.48,1.18 1.16,2.21 2.02,3.09 0.86,0.87 1.87,1.54 3.01,2.02 1.14,0.48 2.37,0.72 3.68,0.72 1.39,0 2.55,-0.18 3.48,-0.52 0.94,-0.34 1.8,-0.86 2.59,-1.56l0 -3.02c-0.43,0.55 -0.95,1.04 -1.56,1.46 -0.62,0.43 -1.29,0.76 -2.04,0.99 -0.75,0.23 -1.57,0.35 -2.47,0.35 -1.24,0 -2.39,-0.31 -3.45,-0.94 -1.06,-0.63 -1.92,-1.51 -2.58,-2.62 -0.65,-1.12 -0.98,-2.4 -0.98,-3.86zm0 0z"/>
      <path class="fil1" d="M886.14 149.44l0 18.88 2.29 0 0 -18.88 -2.29 0zm0 0z"/>
      <path class="fil1" d="M894.55 162.66l9.99 0 -0.81 -2.16 -8.37 0 -0.81 2.16zm4.94 -8.96l3.24 7.61 0.22 0.54 2.75 6.47 2.56 0 -8.77 -19.82 -8.77 19.82 2.57 0 2.8 -6.63 0.22 -0.49 3.18 -7.5zm0 0z"/>
      <path class="fil1" d="M778.88 267.59l-56.65 0 -11.17 26.22 -21.7 0 51 -113.31 20.72 0 51.14 113.31 -22 0 -11.34 -26.22zm-6.95 -16.51l-21.37 -49.54 -21.21 49.54 42.58 0zm0 0z"/>
      <path class="fil1" d="M892.34 293.81l-30.75 -43.06 -30.43 43.06 -23.96 0 42.09 -57.79 -39.83 -55.52 23.8 0 28.98 40.3 28.65 -40.3 22.82 0 -39.66 54.71 42.58 58.6 -24.29 0zm0 0z"/>
     </g>
    </g>
    <polygon class="fil0" points="480.49,401.09 919.51,401.09 919.51,78.89 480.49,78.89 "/>
   </g>
  </g>
  <g id="_2706233939616">
   <path class="fil1" d="M642.4 491.87l1.24 23.79 1.24 -23.79 1.61 -20.26 4.78 0 -5.09 64.32 -5.43 0 -4.71 -64.32 5.14 0 1.22 20.26 0 0zm25.89 -16.67l-6.27 0 0 24.99 5.05 0 0 3.58 -5.05 0 0 28.58 6.27 0 0 3.58 -11.4 0 0 -64.32 11.4 0 0 3.59zm14.63 45.07c0,-2.63 -0.14,-4.89 -0.44,-6.77 -0.29,-1.89 -0.68,-3.53 -1.16,-4.94 -0.49,-1.4 -1.06,-2.6 -1.71,-3.62 -0.65,-1 -1.28,-1.98 -1.89,-2.92 -0.61,-0.96 -1.22,-1.88 -1.8,-2.81 -0.6,-0.92 -1.14,-1.97 -1.61,-3.14 -0.47,-1.15 -0.85,-2.5 -1.14,-4.02 -0.28,-1.54 -0.43,-3.37 -0.43,-5.5l0 -8.96c0,-0.59 0.1,-1.27 0.3,-2.03 0.2,-0.76 0.58,-1.46 1.14,-2.12 0.56,-0.66 1.33,-1.22 2.34,-1.67 0.99,-0.46 2.29,-0.69 3.88,-0.69 1.6,0 2.89,0.23 3.88,0.69 1.01,0.45 1.78,1.01 2.34,1.67 0.55,0.66 0.93,1.36 1.14,2.12 0.2,0.75 0.3,1.44 0.3,2.02l0 16.66 -5.14 0 0 -16.65c0,-0.59 -0.06,-1.07 -0.21,-1.45 -0.15,-0.4 -0.34,-0.69 -0.57,-0.91 -0.25,-0.2 -0.51,-0.35 -0.82,-0.44 -0.3,-0.09 -0.61,-0.13 -0.92,-0.13 -0.31,0 -0.63,0.04 -0.92,0.13 -0.32,0.09 -0.57,0.24 -0.82,0.44 -0.23,0.22 -0.42,0.51 -0.57,0.89 -0.15,0.38 -0.22,0.88 -0.22,1.47l0 7.23c0,2.8 0.26,5.13 0.76,7.01 0.52,1.88 1.16,3.51 1.92,4.9 0.77,1.4 1.55,2.7 2.33,3.89 0.79,1.19 1.62,2.43 2.46,3.7 0.84,1.28 1.51,2.79 2,4.54 0.47,1.75 0.72,3.94 0.72,6.56l0 14.56c0,0.3 -0.04,0.84 -0.12,1.62 -0.09,0.78 -0.36,1.58 -0.83,2.41 -0.49,0.82 -1.25,1.55 -2.28,2.18 -1.04,0.64 -2.52,0.95 -4.43,0.95 -1.91,0 -3.4,-0.31 -4.43,-0.95 -1.03,-0.63 -1.79,-1.36 -2.27,-2.17 -0.48,-0.82 -0.76,-1.62 -0.84,-2.4 -0.08,-0.79 -0.12,-1.32 -0.12,-1.62l0 -21.43 5.13 0 0 21.43c0,0.29 0.02,0.64 0.04,1.05 0.03,0.42 0.13,0.8 0.28,1.18 0.16,0.37 0.4,0.69 0.74,0.94 0.36,0.27 0.84,0.39 1.47,0.39 0.64,0 1.11,-0.12 1.47,-0.39 0.33,-0.25 0.58,-0.57 0.74,-0.95 0.15,-0.37 0.25,-0.76 0.27,-1.17 0.03,-0.41 0.04,-0.76 0.04,-1.05l0 -9.73 0 0zm24.69 -48.66l0 3.59 -5.06 0 0 60.73 -5.13 0 0 -60.73 -5.05 0 0 -3.59 15.24 0zm11.39 0l0 64.32 -5.13 0 0 -64.32 5.13 0zm17.66 5.96c0,-0.58 -0.08,-1.05 -0.25,-1.37 -0.17,-0.32 -0.45,-0.56 -0.85,-0.71 -0.39,-0.14 -0.92,-0.23 -1.56,-0.26 -0.65,-0.02 -1.44,-0.03 -2.39,-0.03l0 57.15c0.95,0 1.74,-0.02 2.39,-0.04 0.64,-0.03 1.17,-0.12 1.56,-0.26 0.4,-0.15 0.68,-0.39 0.85,-0.71 0.17,-0.33 0.25,-0.78 0.25,-1.38l0 -52.39zm5.14 52.4c0,1.49 -0.3,2.64 -0.89,3.44 -0.58,0.81 -1.35,1.4 -2.31,1.77 -0.96,0.38 -2.05,0.59 -3.27,0.66 -1.22,0.06 -2.47,0.09 -3.74,0.09l-5.11 0 0 -64.32 5.11 0c1.27,0 2.52,0.03 3.74,0.09 1.22,0.07 2.31,0.28 3.27,0.66 0.96,0.37 1.73,0.96 2.31,1.77 0.59,0.8 0.89,1.95 0.89,3.44l0 52.4 0 0zm22.16 0.03c0,0.3 -0.04,0.84 -0.12,1.62 -0.08,0.78 -0.35,1.58 -0.83,2.4 -0.49,0.81 -1.25,1.54 -2.28,2.17 -1.03,0.64 -2.51,0.96 -4.43,0.96 -1.91,0 -3.39,-0.32 -4.42,-0.96 -1.03,-0.63 -1.79,-1.36 -2.27,-2.17 -0.49,-0.82 -0.76,-1.62 -0.84,-2.4 -0.08,-0.78 -0.12,-1.32 -0.12,-1.62l0 -52.41c0,-0.2 0.01,-0.49 0.04,-0.88 0.02,-0.41 0.1,-0.84 0.24,-1.34 0.12,-0.48 0.36,-0.97 0.68,-1.48 0.31,-0.51 0.75,-0.97 1.3,-1.4 0.57,-0.42 1.28,-0.76 2.16,-1.01 0.89,-0.27 1.96,-0.4 3.23,-0.4 1.28,0 2.35,0.13 3.24,0.4 0.88,0.25 1.58,0.59 2.15,1.01 0.56,0.43 1,0.89 1.32,1.4 0.32,0.51 0.55,1 0.67,1.48 0.13,0.5 0.21,0.93 0.24,1.34 0.03,0.39 0.04,0.68 0.04,0.88l0 52.41 0 0zm-10.18 0c0,0.29 0.01,0.64 0.04,1.05 0.03,0.41 0.12,0.8 0.27,1.18 0.16,0.37 0.41,0.69 0.75,0.94 0.35,0.27 0.84,0.39 1.46,0.39 0.64,0 1.12,-0.12 1.47,-0.39 0.34,-0.25 0.58,-0.57 0.75,-0.94 0.15,-0.38 0.24,-0.77 0.27,-1.18 0.03,-0.41 0.04,-0.76 0.04,-1.05l0 -52.41c0,-0.29 -0.01,-0.6 -0.04,-0.96 -0.03,-0.34 -0.12,-0.66 -0.27,-0.94 -0.17,-0.29 -0.41,-0.53 -0.75,-0.74 -0.35,-0.19 -0.83,-0.29 -1.47,-0.29 -0.62,0 -1.11,0.1 -1.46,0.29 -0.34,0.21 -0.59,0.45 -0.75,0.74 -0.15,0.28 -0.24,0.6 -0.27,0.94 -0.03,0.36 -0.04,0.67 -0.04,0.96l0 52.41z"/>
   <g id="_2705998464912">
    <path class="fil1" d="M689.27 545.4l0 -1.13 -4.48 0 0 -2.33 6.93 0 0 -1.16 -8.62 0 0 8.15 1.69 0 0 -3.53 4.48 0zm20.97 3.53l0 -1.16 -7.02 0 0 -2.38 4.27 0 0 -1.09 -4.27 0 0 -2.36 7.02 0 0 -1.16 -8.71 0 0 8.15 8.71 0zm16.64 0c1.69,0 2.22,-0.52 2.22,-1.76l0 -1.22c0,-1.07 -0.63,-1.68 -2.01,-1.68l-4.54 0c-0.63,0 -0.92,-0.27 -0.92,-0.79l0 -0.66c0,-0.62 0.22,-0.88 1.04,-0.88l5.91 0 0 -1.16 -6.25 0c-1.83,0 -2.28,0.48 -2.28,1.75l0 1.33c0,0.96 0.68,1.56 2,1.56l4.57 0c0.61,0 0.9,0.27 0.9,0.78l0 0.68c0,0.64 -0.22,0.89 -1.01,0.89l-6.39 0 0 1.16 6.76 0 0 0zm16.43 0l0 -6.99 3.31 0 0 -1.16 -8.34 0 0 1.16 3.35 0 0 6.99 1.68 0 0 0zm18.86 0l1.79 0 -3.83 -8.15 -2.12 0 -3.83 8.15 1.84 0 0.71 -1.63 4.73 0 0.71 1.63zm-3.09 -7.03l1.89 4.28 -3.75 0 1.86 -4.28z"/>
    <path class="fil1" d="M645.54 548.93c2.18,0 2.89,-0.35 2.89,-1.95l0 -4.25c0,-1.62 -0.76,-1.95 -2.89,-1.95l-6.13 0 0 8.15 6.13 0zm1.22 -2.28c0,0.88 -0.45,1.12 -1.65,1.12l-4.01 0 0 -5.83 4.01 0c1.24,0 1.65,0.23 1.65,1.13l0 3.58 0 0zm15.19 2.28l0 -1.16 -7.03 0 0 -2.38 4.28 0 0 -1.09 -4.28 0 0 -2.36 7.03 0 0 -1.16 -8.72 0 0 8.15 8.72 0z"/>
    <g>
     <polygon class="fil1" points="672.45,542.38 671.09,544.54 669.58,542.38 "/>
     <polygon class="fil1" points="672.93,544.43 672.03,545.84 671.46,545.02 673.15,542.38 676.33,542.38 675.82,543.24 672.68,543.24 673.24,543.62 675.64,543.62 675.08,544.47 "/>
     <polygon class="fil1" points="674.78,544.93 673.17,544.93 672.39,546.16 673.22,547.33 "/>
     <polygon class="fil1" points="674.78,544.93 673.17,544.93 672.39,546.16 673.22,547.33 "/>
    </g>
   </g>
  </g>
  <g id="_2705999014976">
   <polygon class="fil2" points="540.78,520.65 550.37,520.65 550.37,491.7 540.78,491.7 "/>
   <g>
    <path class="fil1" d="M376.74 509.52l5.51 0 5.73 0 -5.58 -11.01 -5.66 11.01zm-1.95 3.79l-3.71 7.31 -4.76 0 14.63 -28.74 2.82 0 14.74 28.74 -4.81 0 -3.73 -7.31 -15.18 0z"/>
   </g>
   <path class="fil1" d="M401.66 491.95l4.48 0 0 18.4c0,2.76 0.66,4.62 1.95,5.58 1.3,0.97 3.89,1.45 7.76,1.45 3.88,0 6.48,-0.48 7.78,-1.45 1.29,-0.96 1.95,-2.82 1.95,-5.58l0 -18.4 4.48 0 0 19.57c0,3.53 -1.12,6.07 -3.34,7.64 -2.24,1.58 -5.87,2.36 -10.93,2.36 -5.02,0 -8.64,-0.77 -10.83,-2.32 -2.2,-1.55 -3.3,-4.1 -3.3,-7.68l0 -19.57z"/>
   <path class="fil1" d="M444.48 503.87l15.28 0c1.55,0 2.73,-0.33 3.55,-1.01 0.81,-0.68 1.23,-1.64 1.23,-2.91 0,-1.25 -0.42,-2.21 -1.23,-2.87 -0.82,-0.66 -2,-1 -3.55,-1l-15.28 0 0 7.79zm0 4.21l0 12.54 -4.48 0 0 -28.67 19.76 0c2.94,0 5.24,0.71 6.9,2.12 1.67,1.41 2.5,3.38 2.5,5.9 0,2.03 -0.66,3.8 -1.98,5.29 -1.31,1.49 -3.02,2.41 -5.14,2.75l8.01 12.61 -4.88 0 -8.16 -12.54 -12.53 0z"/>
   <polygon class="fil1" points="477.29,520.62 477.29,491.88 504.24,491.88 504.24,496.08 481.77,496.08 481.77,503.25 496.52,503.25 496.52,507.39 481.77,507.39 481.77,516.48 505.48,516.48 505.48,520.62 "/>
   <path class="fil1" d="M516.8 509.52l11.23 0 -5.58 -11.01 -5.65 11.01zm-10.42 11.1l14.62 -28.74 2.83 0 14.74 28.74 -4.81 0 -3.74 -7.31 -15.17 0 -3.71 7.31 -4.76 0z"/>
   <path class="fil3" d="M543.57 517.39c0,-0.75 0.21,-1.36 0.64,-1.82 0.44,-0.46 1,-0.69 1.68,-0.69 0.7,0 1.25,0.22 1.67,0.68 0.42,0.45 0.62,1.06 0.62,1.83l0 2.05 -4.61 0 0 -2.05zm0.66 -0.01l0 1.34 3.29 0 0 -1.34c0,-0.55 -0.15,-0.98 -0.44,-1.29 -0.29,-0.32 -0.69,-0.47 -1.2,-0.47 -0.48,0 -0.88,0.16 -1.19,0.48 -0.3,0.33 -0.46,0.75 -0.46,1.28zm1.27 -4.38l0 -2.45c0,-0.25 -0.06,-0.44 -0.17,-0.57 -0.11,-0.13 -0.26,-0.2 -0.46,-0.2 -0.21,0 -0.36,0.07 -0.47,0.2 -0.1,0.13 -0.16,0.32 -0.16,0.57l0 2.45 1.26 0zm0.67 0l2.01 0 0 0.72 -4.6 0 0 -3.17c0,-0.47 0.12,-0.84 0.34,-1.11 0.23,-0.27 0.54,-0.4 0.95,-0.4 0.33,0 0.61,0.11 0.85,0.32 0.24,0.21 0.39,0.48 0.44,0.82l2.02 -1.28 0 0.78 -2.01 1.31 0 2.01zm2.01 -5.26l-4.61 0 0 -4.33 0.67 0 0 3.61 1.16 0 0 -2.37 0.66 0 0 2.37 1.46 0 0 -3.81 0.66 0 0 4.53zm-0.59 -5.16l-0.6 -0.35c0.21,-0.32 0.38,-0.67 0.5,-1.04 0.12,-0.38 0.17,-0.73 0.17,-1.08 0,-0.41 -0.08,-0.74 -0.25,-0.99 -0.16,-0.26 -0.38,-0.38 -0.64,-0.38 -0.26,0 -0.46,0.11 -0.59,0.34 -0.12,0.24 -0.19,0.6 -0.21,1.1 -0.01,0.84 -0.11,1.42 -0.29,1.73 -0.18,0.31 -0.49,0.47 -0.91,0.47 -0.4,0 -0.72,-0.17 -0.96,-0.52 -0.24,-0.34 -0.36,-0.81 -0.36,-1.39 0,-0.39 0.05,-0.78 0.17,-1.15 0.11,-0.37 0.27,-0.73 0.49,-1.08l0.6 0.36c-0.19,0.29 -0.34,0.6 -0.45,0.93 -0.11,0.34 -0.16,0.65 -0.16,0.96 0,0.35 0.06,0.63 0.18,0.84 0.13,0.21 0.29,0.32 0.48,0.32 0.21,0 0.35,-0.11 0.44,-0.32 0.09,-0.22 0.13,-0.59 0.13,-1.12 0,-0.73 0.12,-1.29 0.37,-1.66 0.25,-0.38 0.62,-0.56 1.11,-0.56 0.44,0 0.8,0.19 1.09,0.57 0.28,0.38 0.43,0.87 0.43,1.47 0,0.45 -0.07,0.89 -0.19,1.34 -0.13,0.44 -0.31,0.84 -0.55,1.21zm0 -5.29l-0.6 -0.35c0.21,-0.32 0.38,-0.66 0.5,-1.04 0.12,-0.37 0.17,-0.73 0.17,-1.07 0,-0.42 -0.08,-0.75 -0.25,-1 -0.16,-0.25 -0.38,-0.38 -0.64,-0.38 -0.26,0 -0.46,0.12 -0.59,0.35 -0.12,0.23 -0.19,0.59 -0.21,1.09 -0.01,0.84 -0.11,1.42 -0.29,1.73 -0.18,0.32 -0.49,0.47 -0.91,0.47 -0.4,0 -0.72,-0.17 -0.96,-0.51 -0.24,-0.35 -0.36,-0.81 -0.36,-1.39 0,-0.4 0.05,-0.78 0.17,-1.16 0.11,-0.37 0.27,-0.73 0.49,-1.08l0.6 0.37c-0.19,0.28 -0.34,0.6 -0.45,0.93 -0.11,0.33 -0.16,0.65 -0.16,0.95 0,0.35 0.06,0.63 0.18,0.84 0.13,0.21 0.29,0.32 0.48,0.32 0.21,0 0.35,-0.11 0.44,-0.32 0.09,-0.21 0.13,-0.58 0.13,-1.12 0,-0.73 0.12,-1.28 0.37,-1.66 0.25,-0.37 0.62,-0.56 1.11,-0.56 0.44,0 0.8,0.19 1.09,0.57 0.28,0.38 0.43,0.87 0.43,1.48 0,0.44 -0.07,0.89 -0.19,1.33 -0.13,0.44 -0.31,0.84 -0.55,1.21z"/>
  </g>
  <g id="Aurea_x0020_Fine_x0020_Logo.cdr">
   <g>
    <path class="fil1" d="M870.65 505.3l5.54 0 5.76 0 -5.61 -11.08 -5.69 11.08zm-1.96 3.82l-3.73 7.34 -4.79 0 14.71 -28.9 2.84 0 14.82 28.9 -4.84 0 -3.75 -7.34 -15.26 0z"/>
   </g>
   <path class="fil1" d="M895.71 487.63l4.51 0 0 18.51c0,2.77 0.66,4.64 1.96,5.61 1.31,0.97 3.9,1.46 7.8,1.46 3.9,0 6.51,-0.49 7.82,-1.46 1.31,-0.97 1.96,-2.84 1.96,-5.61l0 -18.51 4.51 0 0 19.68c0,3.55 -1.12,6.1 -3.36,7.69 -2.26,1.58 -5.91,2.37 -10.99,2.37 -5.05,0 -8.69,-0.78 -10.89,-2.34 -2.21,-1.56 -3.32,-4.12 -3.32,-7.72l0 -19.68z"/>
   <path class="fil1" d="M938.77 499.62l15.36 0c1.56,0 2.75,-0.33 3.58,-1.02 0.81,-0.68 1.23,-1.65 1.23,-2.92 0,-1.26 -0.42,-2.23 -1.23,-2.89 -0.83,-0.67 -2.02,-1 -3.58,-1l-15.36 0 0 7.83zm0 4.23l0 12.61 -4.51 0 0 -28.83 19.87 0c2.96,0 5.27,0.72 6.95,2.14 1.67,1.42 2.5,3.39 2.5,5.92 0,2.05 -0.65,3.83 -1.98,5.33 -1.32,1.5 -3.04,2.42 -5.17,2.76l8.06 12.68 -4.91 0 -8.21 -12.61 -12.6 0z"/>
   <polygon class="fil1" points="971.77,516.46 971.77,487.56 998.87,487.56 998.87,491.79 976.27,491.79 976.27,499 991.11,499 991.11,503.16 976.27,503.16 976.27,512.3 1000.12,512.3 1000.12,516.46 "/>
   <path class="fil1" d="M1011.5 505.3l11.3 0 -5.62 -11.08 -5.68 11.08zm-10.48 11.16l14.71 -28.9 2.84 0 14.82 28.9 -4.84 0 -3.76 -7.34 -15.26 0 -3.73 7.34 -4.78 0z"/>
   <path class="fil4" d="M984.75 526.8c-0.39,0.4 -0.83,0.82 -1.33,1.27 -0.49,0.44 -1.12,0.97 -1.89,1.59l0 -1.69c1.25,-1.11 2.22,-2.03 2.9,-2.77 0.67,-0.73 1.19,-1.39 1.53,-1.99l4.35 -11.98c0.23,-0.66 0.54,-1.54 0.93,-2.64 0.98,-2.91 1.76,-4.37 2.32,-4.37 0.24,0 0.43,0.1 0.6,0.3 0.17,0.2 0.25,0.43 0.25,0.72 0,0.31 -0.76,2.39 -2.27,6.23 -1.51,3.83 -2.87,7.45 -4.05,10.86l-6.6 18.57c-0.36,1 -0.6,1.74 -0.71,2.21 -0.12,0.48 -0.18,0.88 -0.18,1.21 0,0.27 0.06,0.5 0.18,0.68 0.13,0.2 0.28,0.29 0.46,0.29 0.94,0 2.03,-1.39 3.31,-4.16 1.27,-2.77 1.97,-5.8 2.09,-9.1 2.5,-1.51 4.72,-3.09 6.65,-4.74 1.94,-1.64 3.08,-2.82 3.43,-3.54l1.87 -3.79 1.77 0 -5.54 11.74c-0.06,0.11 -0.1,0.24 -0.14,0.37 -0.05,0.14 -0.07,0.24 -0.07,0.29 0,0.1 0.02,0.18 0.07,0.26 0.05,0.08 0.11,0.12 0.18,0.13 0.23,0 0.98,-0.45 2.24,-1.37 1.26,-0.91 2.93,-2.2 5.03,-3.86l0 1.69 -0.96 0.74c-4.55,3.53 -7.29,5.29 -8.24,5.29 -0.24,0 -0.43,-0.11 -0.6,-0.34 -0.17,-0.23 -0.25,-0.52 -0.25,-0.88 0,-0.17 0.04,-0.38 0.13,-0.63 0.1,-0.26 0.22,-0.55 0.38,-0.86l2.58 -5.05 -0.49 0.39c-2.52,2.09 -4.72,3.76 -6.59,5.01 -0.23,3.89 -1.11,7.24 -2.64,10.05 -1.54,2.81 -3.1,4.21 -4.68,4.21 -0.6,0 -1.08,-0.21 -1.41,-0.64 -0.33,-0.44 -0.49,-1.07 -0.49,-1.89 0,-0.46 0.07,-1.01 0.22,-1.67 0.14,-0.66 0.34,-1.35 0.58,-2.08l5.08 -14.06zm16.73 2.86l0 -1.69c1.1,-0.8 2.05,-1.6 2.88,-2.42 0.82,-0.82 1.32,-1.41 1.52,-1.8l1.86 -3.79 1.81 0 -5.05 10.63c4.01,-3.97 7.06,-6.81 9.14,-8.5 2.07,-1.7 3.53,-2.55 4.35,-2.55 0.21,0 0.37,0.09 0.48,0.27 0.11,0.18 0.16,0.44 0.16,0.79 0,0.17 -0.03,0.37 -0.1,0.6 -0.07,0.21 -0.21,0.57 -0.41,1.04l-4.35 9.44c-0.09,0.22 -0.16,0.38 -0.19,0.47 -0.04,0.1 -0.05,0.17 -0.05,0.21 0,0.11 0.02,0.2 0.07,0.26 0.05,0.08 0.1,0.12 0.17,0.13 0.24,0 1,-0.46 2.3,-1.39 1.29,-0.92 2.97,-2.21 5.01,-3.84l0 1.69 -0.97 0.74c-4.54,3.53 -7.28,5.29 -8.23,5.29 -0.24,0 -0.43,-0.11 -0.6,-0.34 -0.17,-0.23 -0.25,-0.52 -0.25,-0.88 0,-0.16 0.05,-0.36 0.14,-0.61 0.09,-0.26 0.21,-0.55 0.38,-0.88l4.12 -8.68c0.23,-0.47 0.38,-0.76 0.43,-0.88 0.06,-0.13 0.09,-0.22 0.09,-0.27 0,-0.13 -0.02,-0.22 -0.05,-0.28 -0.02,-0.06 -0.07,-0.09 -0.12,-0.09 -0.18,0 -0.7,0.32 -1.56,0.97 -0.86,0.64 -1.83,1.46 -2.91,2.45 -1.34,1.16 -2.59,2.35 -3.76,3.54 -1.18,1.2 -2.22,2.34 -3.13,3.42 -0.14,0.17 -0.33,0.4 -0.57,0.7 -0.88,1.14 -1.62,1.71 -2.21,1.71 -0.26,0 -0.46,-0.1 -0.62,-0.3 -0.15,-0.2 -0.23,-0.46 -0.23,-0.79 0,-0.41 0.63,-1.73 1.88,-3.99 0.59,-1.06 1.06,-1.92 1.4,-2.56 -0.52,0.48 -1.02,0.9 -1.48,1.26 -0.47,0.37 -0.92,0.68 -1.35,0.92zm33.28 -2.14l0 1.69c-3.1,2.48 -5.35,4.08 -6.74,4.81 -1.38,0.73 -2.67,1.1 -3.85,1.1 -1.37,0 -2.43,-0.41 -3.18,-1.23 -0.75,-0.82 -1.13,-1.98 -1.13,-3.49 0,-1.2 0.29,-2.39 0.84,-3.56 0.56,-1.16 1.37,-2.29 2.46,-3.38 1.21,-1.2 2.43,-2.12 3.65,-2.79 1.23,-0.67 2.35,-1 3.35,-1 0.85,0 1.52,0.2 1.99,0.6 0.47,0.41 0.71,0.98 0.71,1.71 0,1.89 -0.97,3.58 -2.91,5.07 -1.95,1.5 -4.29,2.24 -7.03,2.24 -0.31,0 -0.53,0 -0.68,-0.01 -0.14,0 -0.28,-0.02 -0.42,-0.03 -0.06,0.22 -0.11,0.43 -0.14,0.62 -0.03,0.19 -0.04,0.39 -0.04,0.6 0,1.01 0.23,1.78 0.7,2.3 0.47,0.52 1.15,0.78 2.06,0.78 1.03,0 2.2,-0.35 3.5,-1.06 1.31,-0.7 3.59,-2.36 6.86,-4.97zm-12.69 0.25c0.22,0.03 0.44,0.05 0.66,0.07 0.22,0.01 0.45,0.02 0.68,0.02 1.91,0 3.66,-0.64 5.27,-1.91 1.61,-1.27 2.41,-2.51 2.41,-3.73 0,-0.34 -0.11,-0.6 -0.34,-0.79 -0.23,-0.19 -0.53,-0.28 -0.92,-0.28 -1.1,0 -2.42,0.63 -3.96,1.89 -1.55,1.26 -2.81,2.84 -3.8,4.73z"/>
   <path class="fil1" d="M985.85 526.8c-0.38,0.4 -0.82,0.82 -1.32,1.27 -0.49,0.44 -1.12,0.97 -1.89,1.59l0 -1.69c1.25,-1.11 2.22,-2.03 2.9,-2.77 0.67,-0.73 1.19,-1.39 1.53,-1.99l4.35 -11.98c0.23,-0.66 0.54,-1.54 0.93,-2.64 0.98,-2.91 1.76,-4.37 2.32,-4.37 0.24,0 0.43,0.1 0.6,0.3 0.16,0.2 0.25,0.43 0.25,0.72 0,0.31 -0.76,2.39 -2.27,6.23 -1.51,3.83 -2.87,7.45 -4.05,10.86l-6.6 18.57c-0.36,1 -0.6,1.74 -0.71,2.21 -0.12,0.48 -0.18,0.88 -0.18,1.21 0,0.27 0.06,0.5 0.18,0.68 0.13,0.2 0.28,0.29 0.46,0.29 0.94,0 2.03,-1.39 3.31,-4.16 1.27,-2.77 1.97,-5.8 2.09,-9.1 2.5,-1.51 4.72,-3.09 6.65,-4.74 1.94,-1.64 3.08,-2.82 3.43,-3.54l1.87 -3.79 1.77 0 -5.54 11.74c-0.06,0.11 -0.1,0.24 -0.14,0.37 -0.05,0.14 -0.07,0.24 -0.07,0.29 0,0.1 0.02,0.18 0.07,0.26 0.05,0.08 0.11,0.12 0.18,0.13 0.23,0 0.98,-0.45 2.24,-1.37 1.26,-0.91 2.93,-2.2 5.03,-3.86l0 1.69 -0.96 0.74c-4.55,3.53 -7.3,5.29 -8.25,5.29 -0.23,0 -0.42,-0.11 -0.59,-0.34 -0.16,-0.23 -0.25,-0.52 -0.25,-0.88 0,-0.17 0.04,-0.38 0.13,-0.63 0.1,-0.26 0.22,-0.55 0.38,-0.86l2.58 -5.05 -0.49 0.39c-2.52,2.09 -4.72,3.76 -6.59,5.01 -0.23,3.89 -1.11,7.24 -2.64,10.05 -1.54,2.81 -3.1,4.21 -4.68,4.21 -0.6,0 -1.08,-0.21 -1.41,-0.64 -0.33,-0.44 -0.49,-1.07 -0.49,-1.89 0,-0.46 0.07,-1.01 0.22,-1.67 0.14,-0.66 0.34,-1.35 0.58,-2.08l5.07 -14.06zm16.75 2.86l0 -1.69c1.09,-0.8 2.04,-1.6 2.86,-2.42 0.83,-0.82 1.33,-1.41 1.53,-1.8l1.86 -3.79 1.81 0 -5.06 10.63c4.02,-3.97 7.07,-6.81 9.15,-8.5 2.07,-1.7 3.53,-2.55 4.35,-2.55 0.21,0 0.37,0.09 0.48,0.27 0.11,0.18 0.16,0.44 0.16,0.79 0,0.17 -0.03,0.37 -0.1,0.6 -0.07,0.21 -0.21,0.57 -0.41,1.04l-4.35 9.44c-0.09,0.22 -0.16,0.38 -0.19,0.47 -0.04,0.1 -0.05,0.17 -0.05,0.21 0,0.11 0.02,0.2 0.07,0.26 0.05,0.08 0.1,0.12 0.17,0.13 0.23,0 1,-0.46 2.3,-1.39 1.29,-0.92 2.96,-2.21 5.01,-3.84l0 1.69 -0.97 0.74c-4.54,3.53 -7.28,5.29 -8.23,5.29 -0.24,0 -0.44,-0.11 -0.6,-0.34 -0.17,-0.23 -0.25,-0.52 -0.25,-0.88 0,-0.16 0.05,-0.36 0.14,-0.61 0.09,-0.26 0.21,-0.55 0.38,-0.88l4.12 -8.68c0.23,-0.47 0.37,-0.76 0.43,-0.88 0.06,-0.13 0.09,-0.22 0.09,-0.27 0,-0.13 -0.02,-0.22 -0.05,-0.28 -0.02,-0.06 -0.07,-0.09 -0.12,-0.09 -0.18,0 -0.7,0.32 -1.56,0.97 -0.86,0.64 -1.83,1.46 -2.91,2.45 -1.34,1.16 -2.59,2.35 -3.76,3.54 -1.18,1.2 -2.22,2.34 -3.13,3.42 -0.14,0.17 -0.33,0.4 -0.57,0.7 -0.88,1.14 -1.62,1.71 -2.21,1.71 -0.26,0 -0.47,-0.1 -0.62,-0.3 -0.15,-0.2 -0.22,-0.46 -0.22,-0.79 0,-0.41 0.62,-1.73 1.87,-3.99 0.59,-1.06 1.06,-1.92 1.4,-2.56 -0.52,0.48 -1.02,0.9 -1.48,1.26 -0.47,0.37 -0.92,0.68 -1.34,0.92zm33.27 -2.14l0 1.69c-3.1,2.48 -5.35,4.08 -6.74,4.81 -1.38,0.73 -2.67,1.1 -3.85,1.1 -1.37,0 -2.43,-0.41 -3.18,-1.23 -0.75,-0.82 -1.13,-1.98 -1.13,-3.49 0,-1.2 0.29,-2.39 0.84,-3.56 0.56,-1.16 1.37,-2.29 2.46,-3.38 1.21,-1.2 2.43,-2.12 3.65,-2.79 1.23,-0.67 2.35,-1 3.35,-1 0.85,0 1.52,0.2 1.99,0.6 0.47,0.41 0.71,0.98 0.71,1.71 0,1.89 -0.97,3.58 -2.91,5.07 -1.95,1.5 -4.29,2.24 -7.03,2.24 -0.31,0 -0.53,0 -0.68,-0.01 -0.14,0 -0.28,-0.02 -0.42,-0.03 -0.06,0.22 -0.11,0.43 -0.14,0.62 -0.03,0.19 -0.04,0.39 -0.04,0.6 0,1.01 0.23,1.78 0.7,2.3 0.46,0.52 1.15,0.78 2.06,0.78 1.03,0 2.2,-0.35 3.5,-1.06 1.3,-0.7 3.59,-2.36 6.86,-4.97zm-12.69 0.25c0.22,0.03 0.44,0.05 0.66,0.07 0.21,0.01 0.45,0.02 0.68,0.02 1.91,0 3.66,-0.64 5.27,-1.91 1.61,-1.27 2.41,-2.51 2.41,-3.73 0,-0.34 -0.11,-0.6 -0.34,-0.79 -0.23,-0.19 -0.53,-0.28 -0.92,-0.28 -1.1,0 -2.42,0.63 -3.96,1.89 -1.55,1.26 -2.81,2.84 -3.8,4.73z"/>
   <path class="fil5" d="M1001.66 517.47c0.44,0.3 0.52,0.97 0.17,1.48 -0.35,0.51 -0.99,0.68 -1.44,0.38 -0.44,-0.31 -0.52,-0.97 -0.17,-1.48 0.34,-0.51 0.99,-0.68 1.44,-0.38z"/>
  </g>
  <g id="_2705999071568">
   <rect class="fil6" x="640.12" y="643.49" width="119.76" height="33.04"/>
   <path class="fil7" d="M668.94 652.68l0 15.39 7.91 0 0 -1.76 -6.04 0 0 -13.63 -1.87 0zm10.33 7.69c0,-1.15 0.25,-2.19 0.76,-3.09 0.5,-0.91 1.19,-1.63 2.07,-2.16 0.88,-0.53 1.88,-0.79 2.99,-0.79 1.13,0 2.13,0.26 3,0.79 0.87,0.53 1.56,1.25 2.07,2.16 0.5,0.9 0.75,1.94 0.75,3.09 0,1.16 -0.25,2.19 -0.75,3.1 -0.51,0.91 -1.2,1.63 -2.07,2.16 -0.87,0.52 -1.87,0.79 -3,0.79 -1.11,0 -2.11,-0.27 -2.99,-0.79 -0.88,-0.53 -1.57,-1.25 -2.07,-2.16 -0.51,-0.91 -0.76,-1.94 -0.76,-3.1zm-1.98 0c0,1.12 0.19,2.16 0.58,3.12 0.39,0.97 0.94,1.81 1.64,2.52 0.7,0.71 1.53,1.27 2.48,1.67 0.95,0.4 1.99,0.61 3.1,0.61 1.13,0 2.17,-0.21 3.11,-0.61 0.95,-0.4 1.77,-0.96 2.47,-1.67 0.71,-0.71 1.25,-1.55 1.64,-2.52 0.39,-0.96 0.58,-2 0.58,-3.12 0,-1.12 -0.19,-2.17 -0.58,-3.13 -0.39,-0.96 -0.93,-1.79 -1.64,-2.5 -0.7,-0.71 -1.52,-1.27 -2.47,-1.67 -0.94,-0.41 -1.98,-0.61 -3.11,-0.61 -1.11,0 -2.15,0.2 -3.1,0.61 -0.95,0.4 -1.78,0.96 -2.48,1.67 -0.7,0.71 -1.25,1.54 -1.64,2.5 -0.39,0.96 -0.58,2.01 -0.58,3.13zm25.38 1.65l5.12 0c-0.13,0.6 -0.34,1.17 -0.62,1.69 -0.29,0.53 -0.65,1 -1.09,1.41 -0.44,0.41 -0.96,0.73 -1.57,0.96 -0.61,0.22 -1.3,0.34 -2.06,0.34 -1.08,0 -2.06,-0.26 -2.94,-0.77 -0.88,-0.51 -1.58,-1.22 -2.1,-2.13 -0.52,-0.91 -0.78,-1.96 -0.78,-3.15 0,-1.2 0.26,-2.25 0.78,-3.15 0.52,-0.9 1.22,-1.61 2.1,-2.12 0.88,-0.51 1.86,-0.77 2.94,-0.77 1.17,0 2.19,0.23 3.06,0.69 0.86,0.46 1.54,1.11 2.02,1.93l1.32 -1.21c-0.44,-0.72 -0.98,-1.32 -1.62,-1.81 -0.63,-0.48 -1.35,-0.84 -2.15,-1.09 -0.8,-0.25 -1.67,-0.38 -2.63,-0.38 -1.11,0 -2.14,0.2 -3.1,0.58 -0.95,0.39 -1.78,0.94 -2.48,1.65 -0.7,0.71 -1.25,1.55 -1.64,2.52 -0.38,0.97 -0.58,2.02 -0.58,3.16 0,1.15 0.2,2.2 0.58,3.17 0.39,0.97 0.94,1.8 1.64,2.52 0.7,0.71 1.53,1.25 2.48,1.64 0.96,0.39 1.99,0.59 3.1,0.59 1.17,0 2.22,-0.22 3.13,-0.65 0.92,-0.44 1.69,-1.02 2.32,-1.77 0.63,-0.75 1.11,-1.6 1.43,-2.56 0.32,-0.96 0.48,-1.98 0.48,-3.05l-7.14 0 0 1.76zm9.89 -9.34l0 15.39 1.87 0 0 -15.39 -1.87 0zm17.03 0l0 11.45 -11.64 -12.22 0 16.16 1.86 0 0 -11.45 11.65 12.22 0 -16.16 -1.87 0z"/>
  </g>
  <g id="_2705999070224">
   <path class="fil1" d="M589.18 417.79l0 7.98 0.97 0 0 -7.98 -0.97 0zm0.54 0.91l1.63 0c0.51,0 0.93,0.13 1.26,0.37 0.32,0.25 0.48,0.62 0.48,1.11 0,0.49 -0.16,0.86 -0.48,1.11 -0.33,0.25 -0.75,0.38 -1.26,0.38l-1.63 0 0 0.91 1.63 0c0.51,0 0.97,-0.1 1.38,-0.29 0.41,-0.2 0.73,-0.47 0.97,-0.84 0.24,-0.36 0.36,-0.78 0.36,-1.27 0,-0.49 -0.12,-0.92 -0.36,-1.27 -0.24,-0.36 -0.56,-0.64 -0.97,-0.83 -0.41,-0.19 -0.87,-0.29 -1.38,-0.29l-1.63 0 0 0.91zm5.65 -1.82l0 8.89 0.91 0 0 -8.89 -0.91 0zm3.03 7.27c0,-0.19 0.05,-0.35 0.14,-0.49 0.09,-0.14 0.23,-0.24 0.42,-0.32 0.18,-0.07 0.42,-0.11 0.72,-0.11 0.32,0 0.62,0.04 0.9,0.12 0.28,0.08 0.56,0.21 0.82,0.39l0 -0.54c-0.05,-0.06 -0.15,-0.15 -0.31,-0.26 -0.15,-0.11 -0.35,-0.21 -0.61,-0.3 -0.25,-0.09 -0.57,-0.13 -0.95,-0.13 -0.64,0 -1.15,0.15 -1.51,0.46 -0.36,0.31 -0.54,0.72 -0.54,1.23 0,0.35 0.08,0.66 0.25,0.91 0.17,0.25 0.39,0.44 0.67,0.58 0.28,0.13 0.57,0.19 0.89,0.19 0.29,0 0.58,-0.05 0.87,-0.16 0.3,-0.1 0.54,-0.27 0.75,-0.49 0.2,-0.22 0.3,-0.49 0.3,-0.83l-0.18 -0.68c0,0.27 -0.07,0.51 -0.2,0.72 -0.14,0.21 -0.32,0.37 -0.54,0.49 -0.22,0.11 -0.48,0.17 -0.76,0.17 -0.22,0 -0.41,-0.04 -0.59,-0.11 -0.17,-0.07 -0.3,-0.18 -0.39,-0.33 -0.1,-0.14 -0.15,-0.31 -0.15,-0.51zm-0.13 -2.42c0.08,-0.06 0.19,-0.13 0.34,-0.21 0.14,-0.09 0.32,-0.16 0.53,-0.22 0.21,-0.06 0.44,-0.09 0.7,-0.09 0.16,0 0.31,0.02 0.46,0.04 0.14,0.04 0.27,0.09 0.38,0.15 0.11,0.07 0.19,0.17 0.25,0.28 0.07,0.12 0.1,0.27 0.1,0.45l0 3.64 0.91 0 0 -3.76c0,-0.34 -0.09,-0.63 -0.26,-0.87 -0.17,-0.23 -0.41,-0.41 -0.72,-0.54 -0.3,-0.13 -0.66,-0.19 -1.08,-0.19 -0.48,0 -0.9,0.07 -1.24,0.22 -0.35,0.14 -0.62,0.29 -0.82,0.43l0.45 0.67zm4.41 -1.2l0 0.85 2.62 0 0 -0.85 -2.62 0zm0.85 -1.83l0 7.07 0.92 0 0 -7.07 -0.92 0zm3.09 5.45c0,-0.19 0.05,-0.35 0.14,-0.49 0.09,-0.14 0.23,-0.24 0.42,-0.32 0.18,-0.07 0.42,-0.11 0.72,-0.11 0.32,0 0.62,0.04 0.9,0.12 0.28,0.08 0.56,0.21 0.82,0.39l0 -0.54c-0.05,-0.06 -0.15,-0.15 -0.31,-0.26 -0.15,-0.11 -0.35,-0.21 -0.61,-0.3 -0.25,-0.09 -0.57,-0.13 -0.95,-0.13 -0.64,0 -1.15,0.15 -1.51,0.46 -0.36,0.31 -0.54,0.72 -0.54,1.23 0,0.35 0.08,0.66 0.25,0.91 0.17,0.25 0.39,0.44 0.67,0.58 0.28,0.13 0.57,0.19 0.89,0.19 0.29,0 0.58,-0.05 0.88,-0.16 0.29,-0.1 0.54,-0.27 0.74,-0.49 0.2,-0.22 0.3,-0.49 0.3,-0.83l-0.18 -0.68c0,0.27 -0.07,0.51 -0.2,0.72 -0.14,0.21 -0.32,0.37 -0.54,0.49 -0.22,0.11 -0.48,0.17 -0.76,0.17 -0.22,0 -0.41,-0.04 -0.58,-0.11 -0.18,-0.07 -0.31,-0.18 -0.4,-0.33 -0.1,-0.14 -0.15,-0.31 -0.15,-0.51zm-0.13 -2.42c0.08,-0.06 0.19,-0.13 0.34,-0.21 0.14,-0.09 0.32,-0.16 0.53,-0.22 0.21,-0.06 0.44,-0.09 0.7,-0.09 0.16,0 0.31,0.02 0.46,0.04 0.14,0.04 0.27,0.09 0.38,0.15 0.11,0.07 0.19,0.17 0.25,0.28 0.07,0.12 0.1,0.27 0.1,0.45l0 3.64 0.91 0 0 -3.76c0,-0.34 -0.09,-0.63 -0.26,-0.87 -0.17,-0.23 -0.41,-0.41 -0.72,-0.54 -0.3,-0.13 -0.66,-0.19 -1.07,-0.19 -0.49,0 -0.91,0.07 -1.25,0.22 -0.35,0.14 -0.62,0.29 -0.82,0.43l0.45 0.67zm4.81 -1.2l0 0.85 2.62 0 0 -0.85 -2.62 0zm2.53 -2.56l0.5 -0.75c-0.05,-0.08 -0.13,-0.15 -0.22,-0.22 -0.1,-0.07 -0.21,-0.12 -0.34,-0.17 -0.13,-0.04 -0.28,-0.07 -0.44,-0.07 -0.32,0 -0.59,0.07 -0.82,0.2 -0.22,0.14 -0.39,0.34 -0.52,0.6 -0.12,0.27 -0.18,0.61 -0.18,1.03l0 7.18 0.91 0 0 -7.07c0,-0.25 0.03,-0.45 0.07,-0.6 0.05,-0.15 0.11,-0.26 0.19,-0.33 0.08,-0.06 0.18,-0.1 0.29,-0.1 0.09,0 0.19,0.02 0.29,0.06 0.1,0.03 0.19,0.11 0.27,0.24zm0.67 5.18c0,0.52 0.12,0.99 0.36,1.41 0.24,0.41 0.57,0.74 0.98,0.97 0.41,0.24 0.87,0.35 1.38,0.35 0.51,0 0.97,-0.11 1.38,-0.35 0.41,-0.23 0.73,-0.56 0.97,-0.97 0.24,-0.42 0.36,-0.89 0.36,-1.41 0,-0.53 -0.12,-1.01 -0.36,-1.42 -0.24,-0.41 -0.56,-0.73 -0.97,-0.97 -0.41,-0.23 -0.87,-0.35 -1.38,-0.35 -0.51,0 -0.97,0.12 -1.38,0.35 -0.41,0.24 -0.74,0.56 -0.98,0.97 -0.24,0.41 -0.36,0.89 -0.36,1.42zm0.93 0c0,-0.37 0.07,-0.69 0.23,-0.98 0.16,-0.28 0.37,-0.5 0.64,-0.66 0.27,-0.16 0.57,-0.24 0.92,-0.24 0.34,0 0.64,0.08 0.91,0.24 0.27,0.16 0.49,0.38 0.64,0.66 0.16,0.29 0.24,0.61 0.24,0.98 0,0.36 -0.08,0.69 -0.24,0.97 -0.15,0.28 -0.37,0.5 -0.64,0.66 -0.27,0.17 -0.57,0.25 -0.91,0.25 -0.35,0 -0.65,-0.08 -0.92,-0.25 -0.27,-0.16 -0.48,-0.38 -0.64,-0.66 -0.16,-0.28 -0.23,-0.61 -0.23,-0.97zm6.67 -2.62l-0.92 0 0 5.24 0.92 0 0 -5.24zm1.58 1l0.5 -0.75c-0.13,-0.15 -0.28,-0.24 -0.45,-0.29 -0.16,-0.05 -0.34,-0.08 -0.53,-0.08 -0.24,0 -0.48,0.1 -0.72,0.29 -0.23,0.19 -0.42,0.44 -0.57,0.77 -0.15,0.32 -0.22,0.69 -0.22,1.11l0.41 0c0,-0.25 0.02,-0.48 0.07,-0.67 0.05,-0.2 0.14,-0.36 0.27,-0.47 0.13,-0.12 0.31,-0.17 0.53,-0.17 0.16,0 0.28,0.02 0.38,0.06 0.1,0.04 0.21,0.11 0.33,0.2zm8.6 0.93c0,-0.43 -0.07,-0.8 -0.2,-1.11 -0.14,-0.31 -0.33,-0.54 -0.58,-0.7 -0.25,-0.16 -0.55,-0.24 -0.91,-0.24 -0.35,0 -0.66,0.08 -0.94,0.25 -0.27,0.16 -0.5,0.41 -0.68,0.73 -0.12,-0.31 -0.31,-0.55 -0.57,-0.72 -0.27,-0.17 -0.58,-0.26 -0.95,-0.26 -0.32,0 -0.61,0.07 -0.84,0.22 -0.24,0.14 -0.44,0.36 -0.6,0.66l0 -0.76 -0.92 0 0 5.24 0.92 0 0 -3.19c0,-0.28 0.05,-0.51 0.15,-0.71 0.09,-0.2 0.23,-0.35 0.42,-0.45 0.18,-0.1 0.4,-0.15 0.65,-0.15 0.34,0 0.59,0.1 0.75,0.32 0.17,0.21 0.25,0.54 0.25,0.99l0 3.19 0.91 0 0 -3.19c0,-0.28 0.05,-0.51 0.15,-0.71 0.1,-0.2 0.24,-0.35 0.42,-0.45 0.18,-0.1 0.4,-0.15 0.65,-0.15 0.34,0 0.6,0.1 0.76,0.32 0.16,0.21 0.24,0.54 0.24,0.99l0 3.19 0.92 0 0 -3.31zm2.12 1.69c0,-0.19 0.04,-0.35 0.13,-0.49 0.1,-0.14 0.23,-0.24 0.42,-0.32 0.19,-0.07 0.43,-0.11 0.72,-0.11 0.32,0 0.62,0.04 0.9,0.12 0.29,0.08 0.56,0.21 0.83,0.39l0 -0.54c-0.06,-0.06 -0.16,-0.15 -0.31,-0.26 -0.15,-0.11 -0.36,-0.21 -0.61,-0.3 -0.26,-0.09 -0.57,-0.13 -0.95,-0.13 -0.65,0 -1.15,0.15 -1.51,0.46 -0.37,0.31 -0.55,0.72 -0.55,1.23 0,0.35 0.09,0.66 0.25,0.91 0.17,0.25 0.39,0.44 0.67,0.58 0.28,0.13 0.58,0.19 0.9,0.19 0.29,0 0.58,-0.05 0.87,-0.16 0.29,-0.1 0.54,-0.27 0.74,-0.49 0.2,-0.22 0.3,-0.49 0.3,-0.83l-0.18 -0.68c0,0.27 -0.07,0.51 -0.2,0.72 -0.13,0.21 -0.31,0.37 -0.54,0.49 -0.22,0.11 -0.47,0.17 -0.75,0.17 -0.22,0 -0.42,-0.04 -0.59,-0.11 -0.17,-0.07 -0.3,-0.18 -0.4,-0.33 -0.09,-0.14 -0.14,-0.31 -0.14,-0.51zm-0.14 -2.42c0.08,-0.06 0.2,-0.13 0.34,-0.21 0.15,-0.09 0.32,-0.16 0.53,-0.22 0.21,-0.06 0.45,-0.09 0.7,-0.09 0.16,0 0.32,0.02 0.46,0.04 0.14,0.04 0.27,0.09 0.38,0.15 0.11,0.07 0.2,0.17 0.26,0.28 0.06,0.12 0.09,0.27 0.09,0.45l0 3.64 0.91 0 0 -3.76c0,-0.34 -0.08,-0.63 -0.25,-0.87 -0.18,-0.23 -0.42,-0.41 -0.72,-0.54 -0.31,-0.13 -0.67,-0.19 -1.08,-0.19 -0.49,0 -0.9,0.07 -1.25,0.22 -0.34,0.14 -0.62,0.29 -0.81,0.43l0.44 0.67zm12.56 -4.85l0 8.89 0.92 0 0 -8.89 -0.92 0zm-4.38 6.27c0,0.56 0.11,1.05 0.35,1.46 0.23,0.41 0.55,0.72 0.94,0.94 0.4,0.22 0.83,0.33 1.3,0.33 0.45,0 0.83,-0.11 1.16,-0.33 0.32,-0.22 0.58,-0.53 0.77,-0.94 0.18,-0.41 0.28,-0.9 0.28,-1.46 0,-0.57 -0.1,-1.06 -0.28,-1.47 -0.19,-0.4 -0.45,-0.72 -0.77,-0.94 -0.33,-0.22 -0.71,-0.33 -1.16,-0.33 -0.47,0 -0.9,0.11 -1.3,0.33 -0.39,0.22 -0.71,0.54 -0.94,0.94 -0.24,0.41 -0.35,0.9 -0.35,1.47zm0.92 0c0,-0.4 0.08,-0.75 0.24,-1.03 0.17,-0.28 0.39,-0.49 0.66,-0.64 0.27,-0.14 0.57,-0.21 0.89,-0.21 0.27,0 0.53,0.07 0.78,0.21 0.26,0.15 0.48,0.36 0.64,0.64 0.17,0.28 0.25,0.63 0.25,1.03 0,0.4 -0.08,0.74 -0.25,1.02 -0.16,0.29 -0.38,0.5 -0.64,0.64 -0.25,0.15 -0.51,0.22 -0.78,0.22 -0.32,0 -0.62,-0.07 -0.89,-0.22 -0.27,-0.14 -0.49,-0.35 -0.66,-0.64 -0.16,-0.28 -0.24,-0.62 -0.24,-1.02zm8.06 2.73c0.56,0 1.05,-0.11 1.46,-0.33 0.42,-0.23 0.76,-0.56 1.04,-1l-0.74 -0.47c-0.2,0.32 -0.43,0.56 -0.7,0.72 -0.27,0.15 -0.59,0.23 -0.95,0.23 -0.35,0 -0.66,-0.08 -0.91,-0.23 -0.25,-0.15 -0.44,-0.37 -0.57,-0.66 -0.13,-0.29 -0.19,-0.64 -0.19,-1.05 0,-0.4 0.08,-0.74 0.21,-1.02 0.13,-0.28 0.32,-0.49 0.57,-0.64 0.24,-0.15 0.54,-0.22 0.89,-0.22 0.3,0 0.56,0.06 0.78,0.19 0.22,0.13 0.39,0.31 0.52,0.54 0.12,0.23 0.19,0.5 0.19,0.81 0,0.05 -0.02,0.12 -0.04,0.2 -0.02,0.08 -0.04,0.14 -0.07,0.18l0.37 -0.53 -3.77 0 0 0.78 4.49 0c0,-0.02 0,-0.06 0,-0.11 0.01,-0.06 0.01,-0.11 0.01,-0.17 0,-0.55 -0.1,-1.03 -0.3,-1.43 -0.2,-0.41 -0.48,-0.72 -0.85,-0.93 -0.37,-0.22 -0.81,-0.33 -1.33,-0.33 -0.51,0 -0.97,0.12 -1.36,0.34 -0.39,0.23 -0.7,0.55 -0.91,0.96 -0.22,0.41 -0.33,0.89 -0.33,1.44 0,0.54 0.11,1.01 0.32,1.42 0.21,0.41 0.5,0.73 0.88,0.97 0.37,0.23 0.8,0.34 1.29,0.34zm8.17 -2.16l0 -3.19 -0.91 0 0 3.3c0,0.63 0.16,1.12 0.49,1.5 0.33,0.37 0.77,0.55 1.31,0.55 0.35,0 0.66,-0.07 0.91,-0.23 0.26,-0.16 0.48,-0.39 0.66,-0.7l0 0.82 0.91 0 0 -5.24 -0.91 0 0 3.19c0,0.26 -0.06,0.48 -0.17,0.68 -0.11,0.2 -0.27,0.35 -0.47,0.46 -0.2,0.11 -0.43,0.17 -0.7,0.17 -0.36,0 -0.64,-0.11 -0.83,-0.34 -0.19,-0.23 -0.29,-0.55 -0.29,-0.97zm5.29 0.44l-0.71 0.45c0.09,0.2 0.24,0.4 0.43,0.6 0.2,0.2 0.44,0.36 0.72,0.49 0.28,0.12 0.59,0.18 0.94,0.18 0.54,0 0.98,-0.15 1.31,-0.45 0.33,-0.31 0.5,-0.69 0.5,-1.14 0,-0.31 -0.08,-0.57 -0.23,-0.77 -0.15,-0.19 -0.35,-0.36 -0.6,-0.5 -0.25,-0.14 -0.52,-0.27 -0.83,-0.4 -0.18,-0.07 -0.36,-0.15 -0.52,-0.24 -0.17,-0.08 -0.31,-0.17 -0.41,-0.28 -0.11,-0.11 -0.16,-0.23 -0.16,-0.37 0,-0.17 0.07,-0.3 0.2,-0.38 0.14,-0.09 0.3,-0.13 0.49,-0.13 0.28,0 0.52,0.07 0.74,0.2 0.21,0.12 0.4,0.29 0.54,0.49l0.73 -0.47c-0.11,-0.2 -0.26,-0.37 -0.45,-0.53 -0.18,-0.15 -0.4,-0.27 -0.65,-0.36 -0.25,-0.09 -0.51,-0.14 -0.79,-0.14 -0.29,0 -0.56,0.05 -0.82,0.15 -0.26,0.1 -0.47,0.25 -0.64,0.46 -0.16,0.2 -0.24,0.46 -0.24,0.77 0,0.31 0.08,0.56 0.23,0.76 0.16,0.2 0.35,0.36 0.58,0.49 0.24,0.12 0.46,0.23 0.69,0.32 0.21,0.08 0.4,0.16 0.58,0.25 0.19,0.09 0.34,0.19 0.45,0.32 0.12,0.12 0.18,0.28 0.18,0.46 0,0.21 -0.07,0.37 -0.22,0.48 -0.15,0.12 -0.35,0.18 -0.61,0.18 -0.21,0 -0.41,-0.04 -0.59,-0.12 -0.18,-0.08 -0.33,-0.19 -0.47,-0.32 -0.14,-0.14 -0.26,-0.29 -0.37,-0.45zm3.93 -1.01c0,0.52 0.12,0.99 0.35,1.41 0.24,0.41 0.57,0.74 0.98,0.97 0.41,0.24 0.87,0.35 1.38,0.35 0.52,0 0.98,-0.11 1.38,-0.35 0.41,-0.23 0.73,-0.56 0.97,-0.97 0.24,-0.42 0.36,-0.89 0.36,-1.41 0,-0.53 -0.12,-1.01 -0.36,-1.42 -0.24,-0.41 -0.56,-0.73 -0.97,-0.97 -0.4,-0.23 -0.86,-0.35 -1.38,-0.35 -0.51,0 -0.97,0.12 -1.38,0.35 -0.41,0.24 -0.74,0.56 -0.98,0.97 -0.23,0.41 -0.35,0.89 -0.35,1.42zm0.92 0c0,-0.37 0.08,-0.69 0.23,-0.98 0.16,-0.28 0.37,-0.5 0.64,-0.66 0.27,-0.16 0.58,-0.24 0.92,-0.24 0.34,0 0.65,0.08 0.92,0.24 0.27,0.16 0.48,0.38 0.64,0.66 0.15,0.29 0.23,0.61 0.23,0.98 0,0.36 -0.08,0.69 -0.23,0.97 -0.16,0.28 -0.37,0.5 -0.64,0.66 -0.27,0.17 -0.58,0.25 -0.92,0.25 -0.34,0 -0.65,-0.08 -0.92,-0.25 -0.27,-0.16 -0.48,-0.38 -0.64,-0.66 -0.15,-0.28 -0.23,-0.61 -0.23,-0.97zm11.21 2.73c0.56,0 1.05,-0.11 1.46,-0.33 0.42,-0.23 0.76,-0.56 1.03,-1l-0.74 -0.47c-0.19,0.32 -0.42,0.56 -0.69,0.72 -0.28,0.15 -0.59,0.23 -0.95,0.23 -0.36,0 -0.66,-0.08 -0.91,-0.23 -0.25,-0.15 -0.44,-0.37 -0.57,-0.66 -0.13,-0.29 -0.19,-0.64 -0.19,-1.05 0,-0.4 0.07,-0.74 0.21,-1.02 0.13,-0.28 0.32,-0.49 0.57,-0.64 0.24,-0.15 0.54,-0.22 0.89,-0.22 0.3,0 0.56,0.06 0.78,0.19 0.22,0.13 0.39,0.31 0.51,0.54 0.13,0.23 0.19,0.5 0.19,0.81 0,0.05 -0.01,0.12 -0.03,0.2 -0.02,0.08 -0.05,0.14 -0.07,0.18l0.37 -0.53 -3.77 0 0 0.78 4.48 0c0,-0.02 0.01,-0.06 0.01,-0.11 0,-0.06 0,-0.11 0,-0.17 0,-0.55 -0.09,-1.03 -0.29,-1.43 -0.2,-0.41 -0.48,-0.72 -0.85,-0.93 -0.37,-0.22 -0.81,-0.33 -1.33,-0.33 -0.52,0 -0.97,0.12 -1.36,0.34 -0.39,0.23 -0.7,0.55 -0.91,0.96 -0.22,0.41 -0.33,0.89 -0.33,1.44 0,0.54 0.11,1.01 0.31,1.42 0.21,0.41 0.51,0.73 0.88,0.97 0.38,0.23 0.81,0.34 1.3,0.34zm6.46 -5.35l-1.25 1.82 -1.26 -1.82 -1.02 0 1.79 2.54 -1.91 2.7 1.03 0 1.37 -1.98 1.36 1.98 1.03 0 -1.9 -2.7 1.79 -2.54 -1.03 0zm2.23 2.62c0,-0.37 0.08,-0.69 0.24,-0.98 0.15,-0.28 0.37,-0.5 0.64,-0.66 0.27,-0.16 0.57,-0.24 0.92,-0.24 0.28,0 0.54,0.04 0.79,0.13 0.24,0.09 0.46,0.2 0.64,0.34 0.18,0.15 0.31,0.31 0.39,0.48l0 -1.14c-0.18,-0.21 -0.44,-0.37 -0.78,-0.49 -0.34,-0.12 -0.69,-0.18 -1.04,-0.18 -0.51,0 -0.97,0.12 -1.38,0.35 -0.42,0.24 -0.74,0.56 -0.98,0.97 -0.24,0.41 -0.36,0.89 -0.36,1.42 0,0.52 0.12,0.99 0.36,1.41 0.24,0.41 0.56,0.74 0.98,0.97 0.41,0.24 0.87,0.35 1.38,0.35 0.35,0 0.7,-0.05 1.04,-0.17 0.34,-0.12 0.6,-0.29 0.78,-0.5l0 -1.14c-0.08,0.17 -0.21,0.33 -0.39,0.47 -0.18,0.15 -0.4,0.27 -0.64,0.36 -0.25,0.09 -0.51,0.13 -0.79,0.13 -0.35,0 -0.65,-0.08 -0.92,-0.25 -0.27,-0.16 -0.49,-0.38 -0.64,-0.66 -0.16,-0.28 -0.24,-0.61 -0.24,-0.97zm5.04 -6.27l0 8.89 0.92 0 0 -8.89 -0.92 0zm3.54 6.84l0 -3.19 -0.91 0 0 3.3c0,0.63 0.16,1.12 0.49,1.5 0.32,0.37 0.76,0.55 1.31,0.55 0.35,0 0.65,-0.07 0.91,-0.23 0.26,-0.16 0.48,-0.39 0.65,-0.7l0 0.82 0.91 0 0 -5.24 -0.91 0 0 3.19c0,0.26 -0.06,0.48 -0.17,0.68 -0.11,0.2 -0.26,0.35 -0.46,0.46 -0.2,0.11 -0.44,0.17 -0.7,0.17 -0.37,0 -0.65,-0.11 -0.84,-0.34 -0.19,-0.23 -0.28,-0.55 -0.28,-0.97zm5.29 0.44l-0.72 0.45c0.1,0.2 0.25,0.4 0.44,0.6 0.19,0.2 0.43,0.36 0.71,0.49 0.28,0.12 0.6,0.18 0.95,0.18 0.54,0 0.97,-0.15 1.3,-0.45 0.33,-0.31 0.5,-0.69 0.5,-1.14 0,-0.31 -0.07,-0.57 -0.22,-0.77 -0.15,-0.19 -0.35,-0.36 -0.6,-0.5 -0.25,-0.14 -0.53,-0.27 -0.83,-0.4 -0.19,-0.07 -0.36,-0.15 -0.53,-0.24 -0.17,-0.08 -0.3,-0.17 -0.41,-0.28 -0.1,-0.11 -0.16,-0.23 -0.16,-0.37 0,-0.17 0.07,-0.3 0.21,-0.38 0.13,-0.09 0.3,-0.13 0.49,-0.13 0.27,0 0.52,0.07 0.73,0.2 0.22,0.12 0.4,0.29 0.54,0.49l0.73 -0.47c-0.1,-0.2 -0.25,-0.37 -0.44,-0.53 -0.19,-0.15 -0.41,-0.27 -0.66,-0.36 -0.24,-0.09 -0.51,-0.14 -0.79,-0.14 -0.28,0 -0.55,0.05 -0.81,0.15 -0.27,0.1 -0.48,0.25 -0.64,0.46 -0.17,0.2 -0.25,0.46 -0.25,0.77 0,0.31 0.08,0.56 0.24,0.76 0.15,0.2 0.35,0.36 0.58,0.49 0.23,0.12 0.46,0.23 0.69,0.32 0.2,0.08 0.4,0.16 0.58,0.25 0.18,0.09 0.33,0.19 0.45,0.32 0.12,0.12 0.18,0.28 0.18,0.46 0,0.21 -0.08,0.37 -0.23,0.48 -0.14,0.12 -0.35,0.18 -0.61,0.18 -0.21,0 -0.4,-0.04 -0.58,-0.12 -0.18,-0.08 -0.34,-0.19 -0.48,-0.32 -0.13,-0.14 -0.26,-0.29 -0.36,-0.45zm4.38 -5.8c0,0.17 0.06,0.31 0.18,0.44 0.13,0.12 0.28,0.19 0.44,0.19 0.18,0 0.33,-0.07 0.45,-0.19 0.12,-0.13 0.18,-0.27 0.18,-0.44 0,-0.17 -0.06,-0.32 -0.18,-0.45 -0.12,-0.12 -0.27,-0.18 -0.45,-0.18 -0.16,0 -0.31,0.06 -0.44,0.18 -0.12,0.13 -0.18,0.28 -0.18,0.45zm0.17 2.17l0 5.24 0.91 0 0 -5.24 -0.91 0zm1.94 0l2.5 5.64 2.51 -5.64 -1.02 0 -1.49 3.7 -1.48 -3.7 -1.02 0zm5.24 2.62c0,0.52 0.12,0.99 0.36,1.41 0.24,0.41 0.57,0.74 0.97,0.97 0.42,0.24 0.88,0.35 1.38,0.35 0.52,0 0.98,-0.11 1.39,-0.35 0.41,-0.23 0.73,-0.56 0.97,-0.97 0.24,-0.42 0.36,-0.89 0.36,-1.41 0,-0.53 -0.12,-1.01 -0.36,-1.42 -0.24,-0.41 -0.56,-0.73 -0.97,-0.97 -0.41,-0.23 -0.87,-0.35 -1.39,-0.35 -0.5,0 -0.96,0.12 -1.38,0.35 -0.4,0.24 -0.73,0.56 -0.97,0.97 -0.24,0.41 -0.36,0.89 -0.36,1.42zm0.93 0c0,-0.37 0.07,-0.69 0.23,-0.98 0.15,-0.28 0.37,-0.5 0.64,-0.66 0.27,-0.16 0.57,-0.24 0.91,-0.24 0.35,0 0.65,0.08 0.92,0.24 0.27,0.16 0.49,0.38 0.64,0.66 0.16,0.29 0.24,0.61 0.24,0.98 0,0.36 -0.08,0.69 -0.24,0.97 -0.15,0.28 -0.37,0.5 -0.64,0.66 -0.27,0.17 -0.57,0.25 -0.92,0.25 -0.34,0 -0.64,-0.08 -0.91,-0.25 -0.27,-0.16 -0.49,-0.38 -0.64,-0.66 -0.16,-0.28 -0.23,-0.61 -0.23,-0.97zm13.11 -6.27l0 8.89 0.91 0 0 -8.89 -0.91 0zm-4.39 6.27c0,0.56 0.12,1.05 0.35,1.46 0.24,0.41 0.55,0.72 0.95,0.94 0.39,0.22 0.83,0.33 1.3,0.33 0.44,0 0.82,-0.11 1.15,-0.33 0.32,-0.22 0.58,-0.53 0.77,-0.94 0.18,-0.41 0.28,-0.9 0.28,-1.46 0,-0.57 -0.1,-1.06 -0.28,-1.47 -0.19,-0.4 -0.45,-0.72 -0.77,-0.94 -0.33,-0.22 -0.71,-0.33 -1.15,-0.33 -0.47,0 -0.91,0.11 -1.3,0.33 -0.4,0.22 -0.71,0.54 -0.95,0.94 -0.23,0.41 -0.35,0.9 -0.35,1.47zm0.92 0c0,-0.4 0.08,-0.75 0.25,-1.03 0.16,-0.28 0.38,-0.49 0.65,-0.64 0.28,-0.14 0.57,-0.21 0.89,-0.21 0.27,0 0.53,0.07 0.79,0.21 0.26,0.15 0.47,0.36 0.64,0.64 0.16,0.28 0.25,0.63 0.25,1.03 0,0.4 -0.09,0.74 -0.25,1.02 -0.17,0.29 -0.38,0.5 -0.64,0.64 -0.26,0.15 -0.52,0.22 -0.79,0.22 -0.32,0 -0.61,-0.07 -0.89,-0.22 -0.27,-0.14 -0.49,-0.35 -0.65,-0.64 -0.17,-0.28 -0.25,-0.62 -0.25,-1.02zm5.58 0c0,0.52 0.12,0.99 0.36,1.41 0.23,0.41 0.56,0.74 0.97,0.97 0.41,0.24 0.87,0.35 1.38,0.35 0.52,0 0.98,-0.11 1.38,-0.35 0.41,-0.23 0.73,-0.56 0.97,-0.97 0.24,-0.42 0.36,-0.89 0.36,-1.41 0,-0.53 -0.12,-1.01 -0.36,-1.42 -0.24,-0.41 -0.56,-0.73 -0.97,-0.97 -0.4,-0.23 -0.86,-0.35 -1.38,-0.35 -0.51,0 -0.97,0.12 -1.38,0.35 -0.41,0.24 -0.74,0.56 -0.97,0.97 -0.24,0.41 -0.36,0.89 -0.36,1.42zm0.92 0c0,-0.37 0.08,-0.69 0.23,-0.98 0.16,-0.28 0.37,-0.5 0.64,-0.66 0.27,-0.16 0.58,-0.24 0.92,-0.24 0.34,0 0.65,0.08 0.92,0.24 0.27,0.16 0.48,0.38 0.64,0.66 0.15,0.29 0.23,0.61 0.23,0.98 0,0.36 -0.08,0.69 -0.23,0.97 -0.16,0.28 -0.37,0.5 -0.64,0.66 -0.27,0.17 -0.58,0.25 -0.92,0.25 -0.34,0 -0.65,-0.08 -0.92,-0.25 -0.27,-0.16 -0.48,-0.38 -0.64,-0.66 -0.15,-0.28 -0.23,-0.61 -0.23,-0.97zm12.94 -0.52l2.66 0c-0.07,0.32 -0.18,0.61 -0.33,0.88 -0.15,0.28 -0.33,0.52 -0.56,0.73 -0.23,0.22 -0.5,0.38 -0.82,0.5 -0.31,0.12 -0.67,0.18 -1.06,0.18 -0.57,0 -1.07,-0.14 -1.53,-0.4 -0.46,-0.27 -0.82,-0.64 -1.09,-1.11 -0.27,-0.47 -0.4,-1.01 -0.4,-1.63 0,-0.62 0.13,-1.17 0.4,-1.64 0.27,-0.46 0.63,-0.83 1.09,-1.1 0.46,-0.26 0.96,-0.4 1.53,-0.4 0.6,0 1.13,0.12 1.58,0.36 0.45,0.24 0.8,0.58 1.05,1l0.68 -0.63c-0.22,-0.37 -0.5,-0.68 -0.83,-0.93 -0.33,-0.25 -0.71,-0.44 -1.12,-0.57 -0.42,-0.13 -0.87,-0.2 -1.36,-0.2 -0.58,0 -1.12,0.11 -1.61,0.31 -0.49,0.2 -0.92,0.48 -1.29,0.85 -0.36,0.37 -0.65,0.81 -0.85,1.31 -0.2,0.5 -0.3,1.05 -0.3,1.64 0,0.59 0.1,1.14 0.3,1.64 0.2,0.5 0.49,0.94 0.85,1.31 0.37,0.37 0.8,0.65 1.29,0.85 0.49,0.2 1.03,0.3 1.61,0.3 0.6,0 1.15,-0.11 1.62,-0.33 0.48,-0.23 0.88,-0.53 1.2,-0.92 0.33,-0.39 0.58,-0.83 0.74,-1.33 0.17,-0.5 0.26,-1.02 0.26,-1.58l-3.71 0 0 0.91z"/>
   <path class="fil1" d="M751.23 420.53l-0.92 0 0 5.24 0.92 0 0 -5.24zm1.58 1l0.5 -0.75c-0.13,-0.15 -0.28,-0.24 -0.45,-0.29 -0.16,-0.05 -0.34,-0.08 -0.53,-0.08 -0.24,0 -0.48,0.1 -0.72,0.29 -0.23,0.19 -0.42,0.44 -0.57,0.77 -0.15,0.32 -0.22,0.69 -0.22,1.11l0.41 0c0,-0.25 0.02,-0.48 0.07,-0.67 0.05,-0.2 0.14,-0.36 0.27,-0.47 0.13,-0.12 0.31,-0.17 0.53,-0.17 0.16,0 0.28,0.02 0.38,0.06 0.1,0.04 0.21,0.11 0.33,0.2zm2.33 2.19l0 -3.19 -0.92 0 0 3.3c0,0.63 0.17,1.12 0.49,1.5 0.33,0.37 0.77,0.55 1.32,0.55 0.35,0 0.65,-0.07 0.91,-0.23 0.26,-0.16 0.47,-0.39 0.65,-0.7l0 0.82 0.91 0 0 -5.24 -0.91 0 0 3.19c0,0.26 -0.06,0.48 -0.17,0.68 -0.11,0.2 -0.26,0.35 -0.46,0.46 -0.21,0.11 -0.44,0.17 -0.71,0.17 -0.36,0 -0.64,-0.11 -0.83,-0.34 -0.19,-0.23 -0.28,-0.55 -0.28,-0.97zm5.93 4.56l0 -7.75 -0.92 0 0 7.75 0.92 0zm4.38 -5.13c0,-0.57 -0.11,-1.06 -0.35,-1.47 -0.23,-0.4 -0.55,-0.72 -0.94,-0.94 -0.39,-0.22 -0.83,-0.33 -1.31,-0.33 -0.43,0 -0.81,0.11 -1.14,0.33 -0.33,0.22 -0.59,0.54 -0.78,0.94 -0.18,0.41 -0.28,0.9 -0.28,1.47 0,0.56 0.1,1.05 0.28,1.46 0.19,0.41 0.45,0.72 0.78,0.94 0.33,0.22 0.71,0.33 1.14,0.33 0.48,0 0.92,-0.11 1.31,-0.33 0.39,-0.22 0.71,-0.53 0.94,-0.94 0.24,-0.41 0.35,-0.9 0.35,-1.46zm-0.92 0c0,0.4 -0.08,0.74 -0.24,1.02 -0.17,0.29 -0.38,0.5 -0.65,0.64 -0.27,0.15 -0.57,0.22 -0.9,0.22 -0.26,0 -0.53,-0.07 -0.79,-0.22 -0.25,-0.14 -0.47,-0.35 -0.63,-0.64 -0.17,-0.28 -0.25,-0.62 -0.25,-1.02 0,-0.4 0.08,-0.75 0.25,-1.03 0.16,-0.28 0.38,-0.49 0.63,-0.64 0.26,-0.14 0.53,-0.21 0.79,-0.21 0.33,0 0.63,0.07 0.9,0.21 0.27,0.15 0.48,0.36 0.65,0.64 0.16,0.28 0.24,0.63 0.24,1.03zm1.72 0c0,0.52 0.12,0.99 0.36,1.41 0.24,0.41 0.57,0.74 0.98,0.97 0.41,0.24 0.87,0.35 1.38,0.35 0.51,0 0.97,-0.11 1.38,-0.35 0.41,-0.23 0.73,-0.56 0.97,-0.97 0.24,-0.42 0.36,-0.89 0.36,-1.41 0,-0.53 -0.12,-1.01 -0.36,-1.42 -0.24,-0.41 -0.56,-0.73 -0.97,-0.97 -0.41,-0.23 -0.87,-0.35 -1.38,-0.35 -0.51,0 -0.97,0.12 -1.38,0.35 -0.41,0.24 -0.74,0.56 -0.98,0.97 -0.24,0.41 -0.36,0.89 -0.36,1.42zm0.93 0c0,-0.37 0.07,-0.69 0.23,-0.98 0.16,-0.28 0.37,-0.5 0.64,-0.66 0.27,-0.16 0.57,-0.24 0.92,-0.24 0.34,0 0.64,0.08 0.91,0.24 0.27,0.16 0.49,0.38 0.64,0.66 0.16,0.29 0.24,0.61 0.24,0.98 0,0.36 -0.08,0.69 -0.24,0.97 -0.15,0.28 -0.37,0.5 -0.64,0.66 -0.27,0.17 -0.57,0.25 -0.91,0.25 -0.35,0 -0.65,-0.08 -0.92,-0.25 -0.27,-0.16 -0.48,-0.38 -0.64,-0.66 -0.16,-0.28 -0.23,-0.61 -0.23,-0.97zm10 0.23l4.21 0 -0.34 -0.92 -3.53 0 -0.34 0.92zm2.08 -3.79l1.37 3.22 0.09 0.22 1.16 2.74 1.09 0 -3.71 -8.38 -3.7 8.38 1.08 0 1.19 -2.8 0.09 -0.21 1.34 -3.17zm5.3 4.13l0 -3.19 -0.91 0 0 3.3c0,0.63 0.16,1.12 0.49,1.5 0.33,0.37 0.77,0.55 1.31,0.55 0.35,0 0.66,-0.07 0.91,-0.23 0.26,-0.16 0.48,-0.39 0.66,-0.7l0 0.82 0.91 0 0 -5.24 -0.91 0 0 3.19c0,0.26 -0.06,0.48 -0.17,0.68 -0.11,0.2 -0.27,0.35 -0.47,0.46 -0.2,0.11 -0.43,0.17 -0.7,0.17 -0.36,0 -0.64,-0.11 -0.83,-0.34 -0.19,-0.23 -0.29,-0.55 -0.29,-0.97zm5.99 -3.19l-0.91 0 0 5.24 0.91 0 0 -5.24zm1.58 1l0.51 -0.75c-0.14,-0.15 -0.29,-0.24 -0.45,-0.29 -0.17,-0.05 -0.35,-0.08 -0.53,-0.08 -0.25,0 -0.49,0.1 -0.72,0.29 -0.24,0.19 -0.43,0.44 -0.58,0.77 -0.15,0.32 -0.22,0.69 -0.22,1.11l0.41 0c0,-0.25 0.02,-0.48 0.07,-0.67 0.05,-0.2 0.14,-0.36 0.27,-0.47 0.13,-0.12 0.31,-0.17 0.54,-0.17 0.15,0 0.27,0.02 0.37,0.06 0.1,0.04 0.21,0.11 0.33,0.2zm3.28 4.35c0.56,0 1.05,-0.11 1.46,-0.33 0.42,-0.23 0.76,-0.56 1.03,-1l-0.74 -0.47c-0.19,0.32 -0.42,0.56 -0.69,0.72 -0.28,0.15 -0.59,0.23 -0.95,0.23 -0.36,0 -0.66,-0.08 -0.91,-0.23 -0.25,-0.15 -0.44,-0.37 -0.57,-0.66 -0.13,-0.29 -0.2,-0.64 -0.2,-1.05 0.01,-0.4 0.08,-0.74 0.21,-1.02 0.14,-0.28 0.33,-0.49 0.58,-0.64 0.24,-0.15 0.54,-0.22 0.89,-0.22 0.3,0 0.56,0.06 0.78,0.19 0.22,0.13 0.39,0.31 0.51,0.54 0.13,0.23 0.19,0.5 0.19,0.81 0,0.05 -0.01,0.12 -0.03,0.2 -0.03,0.08 -0.05,0.14 -0.07,0.18l0.37 -0.53 -3.77 0 0 0.78 4.48 0c0,-0.02 0,-0.06 0.01,-0.11 0,-0.06 0,-0.11 0,-0.17 0,-0.55 -0.09,-1.03 -0.29,-1.43 -0.2,-0.41 -0.48,-0.72 -0.85,-0.93 -0.37,-0.22 -0.81,-0.33 -1.33,-0.33 -0.52,0 -0.97,0.12 -1.36,0.34 -0.39,0.23 -0.7,0.55 -0.91,0.96 -0.22,0.41 -0.33,0.89 -0.33,1.44 0,0.54 0.1,1.01 0.31,1.42 0.21,0.41 0.51,0.73 0.88,0.97 0.38,0.23 0.81,0.34 1.3,0.34zm4.25 -1.73c0,-0.19 0.04,-0.35 0.13,-0.49 0.1,-0.14 0.24,-0.24 0.42,-0.32 0.19,-0.07 0.43,-0.11 0.73,-0.11 0.31,0 0.61,0.04 0.9,0.12 0.28,0.08 0.55,0.21 0.82,0.39l0 -0.54c-0.06,-0.06 -0.16,-0.15 -0.31,-0.26 -0.15,-0.11 -0.36,-0.21 -0.61,-0.3 -0.25,-0.09 -0.57,-0.13 -0.95,-0.13 -0.65,0 -1.15,0.15 -1.51,0.46 -0.36,0.31 -0.54,0.72 -0.54,1.23 0,0.35 0.08,0.66 0.25,0.91 0.16,0.25 0.39,0.44 0.66,0.58 0.28,0.13 0.58,0.19 0.9,0.19 0.29,0 0.58,-0.05 0.87,-0.16 0.29,-0.1 0.54,-0.27 0.74,-0.49 0.2,-0.22 0.3,-0.49 0.3,-0.83l-0.18 -0.68c0,0.27 -0.07,0.51 -0.2,0.72 -0.13,0.21 -0.31,0.37 -0.53,0.49 -0.23,0.11 -0.48,0.17 -0.76,0.17 -0.22,0 -0.42,-0.04 -0.59,-0.11 -0.17,-0.07 -0.3,-0.18 -0.4,-0.33 -0.09,-0.14 -0.14,-0.31 -0.14,-0.51zm-0.14 -2.42c0.08,-0.06 0.2,-0.13 0.34,-0.21 0.15,-0.09 0.32,-0.16 0.53,-0.22 0.21,-0.06 0.45,-0.09 0.71,-0.09 0.15,0 0.31,0.02 0.45,0.04 0.15,0.04 0.27,0.09 0.38,0.15 0.11,0.07 0.2,0.17 0.26,0.28 0.06,0.12 0.09,0.27 0.09,0.45l0 3.64 0.91 0 0 -3.76c0,-0.34 -0.08,-0.63 -0.25,-0.87 -0.17,-0.23 -0.41,-0.41 -0.72,-0.54 -0.31,-0.13 -0.67,-0.19 -1.08,-0.19 -0.49,0 -0.9,0.07 -1.25,0.22 -0.34,0.14 -0.62,0.29 -0.81,0.43l0.44 0.67z"/>
  </g>
 </g>
</svg>
