<?xml version="1.0" encoding="UTF-8"?>
<!DOCTYPE svg PUBLIC "-//W3C//DTD SVG 1.1//EN" "http://www.w3.org/Graphics/SVG/1.1/DTD/svg11.dtd">
<!-- Creator: CorelDRAW 2021.5 -->
<svg xmlns="http://www.w3.org/2000/svg" xml:space="preserve" width="1400px" height="800px" version="1.1" style="shape-rendering:geometricPrecision; text-rendering:geometricPrecision; image-rendering:optimizeQuality; fill-rule:evenodd; clip-rule:evenodd"
viewBox="0 0 1400 800"
 xmlns:xlink="http://www.w3.org/1999/xlink"
 xmlns:xodm="http://www.corel.com/coreldraw/odm/2003">
 <defs>
  <style type="text/css">
   <![CDATA[
    .str1 {stroke:#373435;stroke-width:2;stroke-miterlimit:22.9256}
    .str0 {stroke:#A1A1A1;stroke-width:2;stroke-miterlimit:22.9256}
    .fil0 {fill:none}
    .fil6 {fill:black}
    .fil3 {fill:black}
    .fil5 {fill:#FEFEFE;fill-rule:nonzero}
    .fil2 {fill:#373435;fill-rule:nonzero}
    .fil1 {fill:black;fill-rule:nonzero}
    .fil4 {fill:white;fill-rule:nonzero}
   ]]>
  </style>
     <clipPath id="id0">
      <path d="M521.69 356.67l351.15 0 0 -257.71 -351.15 0 0 257.71z"/>
     </clipPath>
 </defs>
 <g id="Camada_x0020_1">
  <metadata id="CorelCorpID_0Corel-Layer"/>
  <rect class="fil0 str0" x="334.37" y="431.72" width="795.34" height="147.59" rx="27.33" ry="27.33"/>
  <g id="_2742329294992">
   <g>
    <g>
    </g>
    <g style="clip-path:url(#id0)">
     <g>
      <path class="fil1" d="M656.55 304.97c0,-25.49 0,-50.59 0,-75.7 -0.33,-0.12 -0.65,-0.25 -0.98,-0.38 -13.34,16.77 -26.7,33.52 -40.53,50.89 -4.92,-6.13 -9.64,-12.01 -14.78,-18.4 -25.17,31.64 -50.15,63.02 -75.34,94.67 -1.15,-0.92 -2.07,-1.66 -3.16,-2.54 53.61,-67.39 107.02,-134.55 161.11,-202.55 0,51.98 0,102.87 0,154.01 -8.65,0 -17.06,0 -26.32,0zm0 0z"/>
      <path class="fil1" d="M547.22 151.66c19.57,24.58 38.52,48.4 57.9,72.75 1.47,-1.76 2.76,-3.27 3.99,-4.82 31.08,-39.09 62.14,-78.19 93.26,-117.25 1.36,-1.69 2.64,-5.6 5.99,-1.3l0 0.28c-39.02,49.06 -78.07,98.16 -117.57,147.82 -5.51,-6.82 -10.75,-13.33 -16.61,-20.58 -0.23,1.9 -0.47,2.99 -0.47,4.09 -0.02,11.33 0.12,22.67 -0.11,33.99 -0.05,2.33 -0.93,5.04 -2.34,6.88 -7.64,9.98 -15.58,19.75 -24.04,30.38 0,-51.02 0,-101.08 0,-152.24z"/>
      <path class="fil1" d="M727.15 155.38l0 15.11 1.83 0 0 -15.11 -1.83 0zm0 0z"/>
      <path class="fil1" d="M743.87 155.38l0 11.25 -11.44 -12 0 15.86 1.83 0 0 -11.24 11.44 12 0 -15.87 -1.83 0zm0 0z"/>
      <path class="fil1" d="M747.64 157.11l3.89 0 0 13.38 1.83 0 0 -13.38 3.89 0 0 -1.73 -9.61 0 0 1.73zm0 0z"/>
      <path class="fil1" d="M760.2 170.49l7.62 0 0 -1.73 -7.62 0 0 1.73zm0 -13.38l7.62 0 0 -1.73 -7.62 0 0 1.73zm0 6.04l7.19 0 0 -1.72 -7.19 0 0 1.72zm-1.01 -7.77l0 15.11 1.83 0 0 -15.11 -1.83 0zm0 0z"/>
      <path class="fil1" d="M771.06 155.38l0 15.11 7.76 0 0 -1.73 -5.93 0 0 -13.38 -1.83 0zm0 0z"/>
      <path class="fil1" d="M780.77 155.38l0 15.11 1.83 0 0 -15.11 -1.83 0zm0 0z"/>
      <path class="fil1" d="M793.07 164.56l5.03 0c-0.14,0.59 -0.34,1.14 -0.62,1.66 -0.28,0.52 -0.64,0.98 -1.07,1.38 -0.43,0.4 -0.94,0.71 -1.54,0.94 -0.6,0.22 -1.27,0.33 -2.02,0.33 -1.07,0 -2.03,-0.25 -2.89,-0.75 -0.86,-0.51 -1.55,-1.21 -2.06,-2.1 -0.51,-0.89 -0.77,-1.92 -0.77,-3.08 0,-1.18 0.26,-2.21 0.77,-3.1 0.51,-0.88 1.2,-1.58 2.06,-2.08 0.86,-0.51 1.82,-0.76 2.89,-0.76 1.15,0 2.15,0.23 3,0.68 0.85,0.46 1.51,1.09 1.98,1.89l1.3 -1.19c-0.43,-0.7 -0.96,-1.29 -1.59,-1.77 -0.62,-0.47 -1.33,-0.83 -2.11,-1.07 -0.78,-0.25 -1.65,-0.37 -2.58,-0.37 -1.09,0 -2.11,0.19 -3.04,0.57 -0.94,0.38 -1.75,0.92 -2.44,1.62 -0.69,0.7 -1.23,1.52 -1.61,2.47 -0.38,0.95 -0.57,1.99 -0.57,3.11 0,1.12 0.19,2.16 0.57,3.1 0.38,0.95 0.92,1.78 1.61,2.48 0.69,0.69 1.5,1.23 2.44,1.61 0.93,0.39 1.95,0.58 3.04,0.58 1.15,0 2.18,-0.22 3.08,-0.64 0.9,-0.43 1.65,-1.01 2.27,-1.74 0.62,-0.73 1.09,-1.57 1.4,-2.51 0.32,-0.95 0.48,-1.94 0.48,-2.99l-7.01 0 0 1.73zm0 0z"/>
      <path class="fil1" d="M803.79 170.49l7.62 0 0 -1.73 -7.62 0 0 1.73zm0 -13.38l7.62 0 0 -1.73 -7.62 0 0 1.73zm0 6.04l7.18 0 0 -1.72 -7.18 0 0 1.72zm-1.01 -7.77l0 15.11 1.83 0 0 -15.11 -1.83 0zm4.53 -3.56l2.37 2.05 1.08 -0.86 -3.45 -3.02 -3.45 3.02 1.08 0.86 2.37 -2.05zm0 0z"/>
      <path class="fil1" d="M826.08 155.38l0 11.25 -11.43 -12 0 15.86 1.83 0 0 -11.24 11.44 12 0 -15.87 -1.84 0zm0 0z"/>
      <path class="fil1" d="M832.45 162.94c0,-1.18 0.26,-2.21 0.78,-3.1 0.53,-0.88 1.22,-1.58 2.06,-2.08 0.85,-0.51 1.77,-0.76 2.77,-0.76 0.71,0 1.37,0.1 1.97,0.28 0.6,0.19 1.14,0.45 1.63,0.79 0.49,0.34 0.91,0.73 1.25,1.18l0 -2.42c-0.63,-0.56 -1.32,-0.98 -2.07,-1.25 -0.75,-0.27 -1.68,-0.41 -2.78,-0.41 -1.05,0 -2.04,0.19 -2.95,0.57 -0.91,0.38 -1.71,0.92 -2.41,1.62 -0.69,0.7 -1.23,1.52 -1.61,2.47 -0.39,0.95 -0.59,1.99 -0.59,3.11 0,1.12 0.2,2.16 0.59,3.1 0.38,0.95 0.92,1.78 1.61,2.48 0.7,0.69 1.5,1.23 2.41,1.61 0.91,0.39 1.9,0.58 2.95,0.58 1.1,0 2.03,-0.14 2.78,-0.41 0.75,-0.28 1.44,-0.7 2.07,-1.26l0 -2.41c-0.34,0.44 -0.76,0.84 -1.25,1.17 -0.49,0.34 -1.03,0.6 -1.63,0.79 -0.6,0.19 -1.26,0.28 -1.97,0.28 -1,0 -1.92,-0.25 -2.77,-0.75 -0.84,-0.51 -1.53,-1.21 -2.06,-2.1 -0.52,-0.89 -0.78,-1.92 -0.78,-3.08zm0 0z"/>
      <path class="fil1" d="M846.15 155.38l0 15.11 1.83 0 0 -15.11 -1.83 0zm0 0z"/>
      <path class="fil1" d="M852.88 165.96l7.99 0 -0.65 -1.73 -6.69 0 -0.65 1.73zm3.95 -7.17l2.59 6.09 0.17 0.43 2.2 5.18 2.05 0 -7.01 -15.86 -7.02 15.86 2.06 0 2.24 -5.31 0.17 -0.39 2.55 -6zm0 0z"/>
      <path class="fil1" d="M760.36 249.89l-45.31 0 -8.94 20.97 -17.35 0 40.79 -90.63 16.57 0 40.91 90.63 -17.61 0 -9.06 -20.97zm-5.56 -13.21l-17.1 -39.62 -16.96 39.62 34.06 0zm0 0z"/>
      <path class="fil1" d="M851.11 270.86l-24.6 -34.44 -24.34 34.44 -19.16 0 33.66 -46.22 -31.85 -44.41 19.04 0 23.17 32.24 22.92 -32.24 18.25 0 -31.72 43.76 34.05 46.87 -19.42 0zm0 0z"/>
     </g>
    </g>
    <polygon class="fil0" points="521.69,356.67 872.84,356.67 872.84,98.96 521.69,98.96 "/>
   </g>
  </g>
  <g id="_2742329290288">
   <path class="fil2" d="M668.55 487.38l1.24 23.79 1.23 -23.79 1.62 -20.26 4.78 0 -5.09 64.31 -5.44 0 -4.71 -64.31 5.15 0 1.22 20.26 0 0zm25.89 -16.68l-6.27 0 0 25 5.05 0 0 3.58 -5.05 0 0 28.57 6.27 0 0 3.58 -11.41 0 0 -64.31 11.41 0 0 3.58zm14.63 45.07c0,-2.62 -0.15,-4.88 -0.45,-6.77 -0.28,-1.89 -0.68,-3.52 -1.15,-4.93 -0.49,-1.4 -1.06,-2.61 -1.71,-3.62 -0.66,-1.01 -1.28,-1.99 -1.89,-2.92 -0.61,-0.96 -1.22,-1.88 -1.81,-2.81 -0.6,-0.93 -1.14,-1.97 -1.6,-3.14 -0.47,-1.16 -0.85,-2.5 -1.14,-4.02 -0.29,-1.54 -0.43,-3.37 -0.43,-5.5l0 -8.96c0,-0.59 0.09,-1.27 0.29,-2.03 0.21,-0.76 0.59,-1.46 1.14,-2.12 0.56,-0.66 1.33,-1.22 2.34,-1.68 0.99,-0.45 2.29,-0.68 3.88,-0.68 1.61,0 2.9,0.23 3.89,0.68 1,0.46 1.78,1.02 2.33,1.68 0.56,0.66 0.94,1.36 1.14,2.12 0.21,0.75 0.3,1.44 0.3,2.02l0 16.66 -5.13 0 0 -16.65c0,-0.59 -0.07,-1.08 -0.22,-1.46 -0.15,-0.39 -0.34,-0.68 -0.57,-0.9 -0.24,-0.2 -0.5,-0.35 -0.81,-0.44 -0.3,-0.09 -0.61,-0.13 -0.93,-0.13 -0.31,0 -0.62,0.04 -0.92,0.13 -0.31,0.09 -0.57,0.24 -0.81,0.44 -0.24,0.22 -0.43,0.51 -0.58,0.89 -0.14,0.38 -0.21,0.88 -0.21,1.47l0 7.23c0,2.79 0.26,5.13 0.76,7.01 0.51,1.88 1.15,3.5 1.91,4.9 0.78,1.4 1.55,2.69 2.34,3.89 0.79,1.19 1.61,2.42 2.46,3.69 0.84,1.29 1.5,2.8 1.99,4.55 0.48,1.75 0.72,3.94 0.72,6.55l0 14.57c0,0.29 -0.04,0.84 -0.12,1.61 -0.08,0.79 -0.35,1.59 -0.83,2.42 -0.49,0.82 -1.25,1.54 -2.28,2.18 -1.03,0.63 -2.51,0.95 -4.43,0.95 -1.91,0 -3.39,-0.32 -4.42,-0.95 -1.04,-0.64 -1.8,-1.36 -2.27,-2.17 -0.49,-0.83 -0.76,-1.63 -0.84,-2.4 -0.08,-0.79 -0.12,-1.32 -0.12,-1.63l0 -21.42 5.13 0 0 21.42c0,0.29 0.01,0.65 0.04,1.06 0.03,0.42 0.12,0.8 0.27,1.18 0.16,0.37 0.41,0.68 0.75,0.94 0.35,0.26 0.84,0.39 1.46,0.39 0.64,0 1.12,-0.12 1.47,-0.39 0.34,-0.26 0.58,-0.57 0.75,-0.95 0.15,-0.37 0.24,-0.77 0.27,-1.17 0.02,-0.41 0.04,-0.77 0.04,-1.06l0 -9.73 0 0zm24.68 -48.65l0 3.58 -5.05 0 0 60.73 -5.13 0 0 -60.73 -5.06 0 0 -3.58 15.24 0zm11.4 0l0 64.31 -5.13 0 0 -64.31 5.13 0zm17.66 5.96c0,-0.59 -0.08,-1.06 -0.26,-1.37 -0.16,-0.32 -0.45,-0.56 -0.84,-0.71 -0.39,-0.14 -0.92,-0.23 -1.56,-0.26 -0.66,-0.02 -1.44,-0.04 -2.39,-0.04l0 57.15c0.95,0 1.73,-0.01 2.39,-0.03 0.64,-0.03 1.17,-0.12 1.56,-0.26 0.39,-0.15 0.68,-0.39 0.84,-0.71 0.18,-0.33 0.26,-0.79 0.26,-1.39l0 -52.38zm5.13 52.4c0,1.48 -0.3,2.64 -0.88,3.44 -0.59,0.81 -1.36,1.4 -2.31,1.76 -0.96,0.38 -2.05,0.6 -3.27,0.66 -1.22,0.07 -2.47,0.09 -3.75,0.09l-5.1 0 0 -64.31 5.1 0c1.28,0 2.53,0.03 3.75,0.09 1.22,0.06 2.31,0.28 3.27,0.66 0.95,0.37 1.72,0.95 2.31,1.77 0.58,0.8 0.88,1.95 0.88,3.44l0 52.4 0 0zm22.17 0.02c0,0.31 -0.04,0.84 -0.12,1.63 -0.08,0.77 -0.36,1.57 -0.83,2.4 -0.49,0.81 -1.25,1.53 -2.28,2.17 -1.04,0.63 -2.51,0.95 -4.43,0.95 -1.91,0 -3.4,-0.32 -4.43,-0.95 -1.03,-0.64 -1.79,-1.36 -2.27,-2.17 -0.48,-0.83 -0.75,-1.63 -0.84,-2.4 -0.08,-0.79 -0.12,-1.32 -0.12,-1.63l0 -52.4c0,-0.2 0.02,-0.49 0.04,-0.89 0.03,-0.4 0.11,-0.83 0.25,-1.33 0.12,-0.48 0.35,-0.98 0.67,-1.48 0.32,-0.51 0.75,-0.97 1.31,-1.4 0.57,-0.42 1.27,-0.76 2.16,-1.02 0.88,-0.27 1.95,-0.39 3.23,-0.39 1.28,0 2.35,0.12 3.23,0.39 0.88,0.26 1.59,0.6 2.16,1.02 0.56,0.43 0.99,0.89 1.32,1.4 0.31,0.5 0.54,1 0.66,1.48 0.14,0.5 0.22,0.93 0.25,1.33 0.03,0.4 0.04,0.69 0.04,0.89l0 52.4 0 0zm-10.19 0c0,0.29 0.02,0.65 0.04,1.06 0.03,0.4 0.13,0.8 0.28,1.18 0.16,0.37 0.4,0.68 0.74,0.94 0.36,0.27 0.84,0.39 1.47,0.39 0.64,0 1.11,-0.12 1.47,-0.39 0.34,-0.26 0.58,-0.57 0.74,-0.94 0.15,-0.38 0.25,-0.78 0.27,-1.18 0.03,-0.41 0.04,-0.77 0.04,-1.06l0 -52.4c0,-0.29 -0.01,-0.61 -0.04,-0.96 -0.02,-0.34 -0.12,-0.66 -0.27,-0.94 -0.16,-0.29 -0.4,-0.53 -0.74,-0.74 -0.36,-0.19 -0.83,-0.29 -1.47,-0.29 -0.63,0 -1.11,0.1 -1.47,0.29 -0.34,0.21 -0.58,0.45 -0.74,0.74 -0.15,0.28 -0.25,0.6 -0.28,0.94 -0.02,0.35 -0.04,0.67 -0.04,0.96l0 52.4z"/>
   <g id="_2705998464912">
    <path class="fil2" d="M715.41 540.91l0 -1.13 -4.47 0 0 -2.33 6.92 0 0 -1.16 -8.61 0 0 8.14 1.69 0 0 -3.52 4.47 0zm20.98 3.52l0 -1.15 -7.03 0 0 -2.38 4.28 0 0 -1.1 -4.28 0 0 -2.35 7.03 0 0 -1.16 -8.72 0 0 8.14 8.72 0zm16.64 0c1.68,0 2.21,-0.51 2.21,-1.76l0 -1.22c0,-1.06 -0.62,-1.67 -2.01,-1.67l-4.53 0c-0.63,0 -0.92,-0.28 -0.92,-0.79l0 -0.66c0,-0.63 0.22,-0.88 1.03,-0.88l5.92 0 0 -1.16 -6.25 0c-1.84,0 -2.28,0.48 -2.28,1.75l0 1.33c0,0.96 0.67,1.55 1.99,1.55l4.57 0c0.61,0 0.91,0.27 0.91,0.79l0 0.68c0,0.64 -0.23,0.89 -1.02,0.89l-6.38 0 0 1.15 6.76 0 0 0zm16.42 0l0 -6.98 3.32 0 0 -1.16 -8.35 0 0 1.16 3.36 0 0 6.98 1.67 0 0 0zm18.87 0l1.79 0 -3.84 -8.14 -2.12 0 -3.83 8.14 1.85 0 0.7 -1.62 4.73 0 0.72 1.62zm-3.09 -7.02l1.88 4.27 -3.74 0 1.86 -4.27z"/>
    <path class="fil2" d="M671.68 544.43c2.18,0 2.9,-0.34 2.9,-1.94l0 -4.26c0,-1.61 -0.76,-1.94 -2.9,-1.94l-6.12 0 0 8.14 6.12 0zm1.22 -2.28c0,0.89 -0.44,1.13 -1.65,1.13l-4.01 0 0 -5.83 4.01 0c1.24,0 1.65,0.23 1.65,1.13l0 3.57 0 0zm15.19 2.28l0 -1.15 -7.02 0 0 -2.38 4.27 0 0 -1.1 -4.27 0 0 -2.35 7.02 0 0 -1.16 -8.71 0 0 8.14 8.71 0z"/>
    <g>
     <polygon class="fil2" points="698.6,537.89 697.23,540.05 695.73,537.89 "/>
     <polygon class="fil2" points="699.07,539.93 698.17,541.34 697.6,540.53 699.3,537.89 702.47,537.89 701.96,538.75 698.82,538.75 699.38,539.13 701.79,539.13 701.22,539.98 "/>
     <polygon class="fil2" points="700.93,540.44 699.32,540.44 698.54,541.67 699.37,542.84 "/>
     <polygon class="fil2" points="700.93,540.44 699.32,540.44 698.54,541.67 699.37,542.84 "/>
    </g>
   </g>
  </g>
  <g id="_2742329281360">
   <polygon class="fil3" points="552.96,522.01 562.55,522.01 562.55,493.05 552.96,493.05 "/>
   <g>
    <path class="fil1" d="M388.92 510.88l5.51 0 5.73 0 -5.58 -11.02 -5.66 11.02zm-1.95 3.79l-3.71 7.3 -4.76 0 14.63 -28.74 2.82 0 14.74 28.74 -4.81 0 -3.73 -7.3 -15.18 0z"/>
   </g>
   <path class="fil1" d="M413.84 493.3l4.48 0 0 18.4c0,2.76 0.66,4.62 1.96,5.59 1.29,0.96 3.88,1.44 7.75,1.44 3.88,0 6.48,-0.48 7.78,-1.44 1.3,-0.97 1.95,-2.83 1.95,-5.59l0 -18.4 4.48 0 0 19.58c0,3.52 -1.11,6.06 -3.34,7.64 -2.24,1.57 -5.87,2.35 -10.93,2.35 -5.02,0 -8.64,-0.77 -10.83,-2.32 -2.19,-1.55 -3.3,-4.1 -3.3,-7.67l0 -19.58z"/>
   <path class="fil1" d="M456.66 505.23l15.28 0c1.55,0 2.73,-0.34 3.55,-1.02 0.81,-0.67 1.23,-1.64 1.23,-2.9 0,-1.25 -0.42,-2.22 -1.23,-2.87 -0.82,-0.67 -2,-1 -3.55,-1l-15.28 0 0 7.79zm0 4.2l0 12.54 -4.48 0 0 -28.67 19.76 0c2.94,0 5.24,0.71 6.9,2.13 1.67,1.41 2.5,3.37 2.5,5.89 0,2.03 -0.66,3.8 -1.98,5.3 -1.31,1.49 -3.02,2.41 -5.14,2.74l8.01 12.61 -4.88 0 -8.16 -12.54 -12.53 0z"/>
   <polygon class="fil1" points="489.47,521.97 489.47,493.23 516.42,493.23 516.42,497.44 493.95,497.44 493.95,504.61 508.7,504.61 508.7,508.74 493.95,508.74 493.95,517.84 517.66,517.84 517.66,521.97 "/>
   <path class="fil1" d="M528.98 510.88l11.24 0 -5.59 -11.02 -5.65 11.02zm-10.42 11.09l14.63 -28.74 2.82 0 14.74 28.74 -4.81 0 -3.74 -7.3 -15.17 0 -3.71 7.3 -4.76 0z"/>
   <path class="fil4" d="M555.75 518.75c0,-0.76 0.22,-1.37 0.65,-1.83 0.43,-0.46 0.99,-0.69 1.67,-0.69 0.7,0 1.25,0.23 1.67,0.68 0.42,0.45 0.63,1.06 0.63,1.84l0 2.04 -4.62 0 0 -2.04zm0.66 -0.02l0 1.34 3.29 0 0 -1.34c0,-0.54 -0.15,-0.98 -0.44,-1.29 -0.29,-0.31 -0.69,-0.47 -1.2,-0.47 -0.48,0 -0.88,0.16 -1.19,0.49 -0.3,0.32 -0.46,0.75 -0.46,1.27zm1.27 -4.37l0 -2.46c0,-0.24 -0.06,-0.43 -0.17,-0.56 -0.1,-0.14 -0.26,-0.2 -0.46,-0.2 -0.2,0 -0.36,0.06 -0.46,0.2 -0.11,0.13 -0.16,0.32 -0.16,0.56l0 2.46 1.25 0zm0.67 0l2.02 0 0 0.72 -4.61 0 0 -3.18c0,-0.47 0.12,-0.84 0.34,-1.1 0.23,-0.27 0.54,-0.4 0.95,-0.4 0.33,0 0.61,0.1 0.85,0.31 0.24,0.21 0.39,0.49 0.44,0.83l2.03 -1.29 0 0.79 -2.02 1.31 0 2.01zm2.02 -5.27l-4.62 0 0 -4.33 0.68 0 0 3.61 1.15 0 0 -2.37 0.66 0 0 2.37 1.46 0 0 -3.81 0.67 0 0 4.53zm-0.6 -5.16l-0.6 -0.35c0.21,-0.32 0.38,-0.66 0.5,-1.04 0.12,-0.37 0.18,-0.73 0.18,-1.07 0,-0.42 -0.09,-0.75 -0.26,-1 -0.16,-0.25 -0.38,-0.38 -0.64,-0.38 -0.26,0 -0.46,0.12 -0.59,0.35 -0.12,0.23 -0.19,0.59 -0.21,1.09 -0.01,0.84 -0.11,1.42 -0.29,1.73 -0.18,0.32 -0.49,0.47 -0.91,0.47 -0.4,0 -0.72,-0.17 -0.96,-0.51 -0.24,-0.35 -0.36,-0.81 -0.36,-1.39 0,-0.4 0.05,-0.78 0.17,-1.16 0.11,-0.37 0.27,-0.73 0.49,-1.08l0.6 0.37c-0.19,0.28 -0.34,0.6 -0.45,0.93 -0.1,0.33 -0.16,0.65 -0.16,0.95 0,0.35 0.06,0.63 0.18,0.84 0.13,0.22 0.29,0.32 0.48,0.32 0.21,0 0.35,-0.1 0.44,-0.32 0.09,-0.21 0.13,-0.58 0.13,-1.11 0,-0.74 0.12,-1.29 0.37,-1.67 0.25,-0.37 0.62,-0.56 1.11,-0.56 0.44,0 0.8,0.19 1.09,0.57 0.29,0.38 0.43,0.87 0.43,1.48 0,0.44 -0.07,0.89 -0.19,1.33 -0.13,0.44 -0.31,0.84 -0.55,1.21zm0 -5.28l-0.6 -0.36c0.21,-0.31 0.38,-0.66 0.5,-1.03 0.12,-0.38 0.18,-0.74 0.18,-1.08 0,-0.41 -0.09,-0.74 -0.26,-1 -0.16,-0.25 -0.38,-0.37 -0.64,-0.37 -0.26,0 -0.46,0.11 -0.59,0.34 -0.12,0.23 -0.19,0.6 -0.21,1.09 -0.01,0.85 -0.11,1.42 -0.29,1.74 -0.18,0.31 -0.49,0.47 -0.91,0.47 -0.4,0 -0.72,-0.18 -0.96,-0.52 -0.24,-0.35 -0.36,-0.81 -0.36,-1.39 0,-0.4 0.05,-0.78 0.17,-1.15 0.11,-0.38 0.27,-0.74 0.49,-1.08l0.6 0.36c-0.19,0.29 -0.34,0.6 -0.45,0.93 -0.1,0.33 -0.16,0.65 -0.16,0.95 0,0.35 0.06,0.63 0.18,0.85 0.13,0.21 0.29,0.32 0.48,0.32 0.21,0 0.35,-0.11 0.44,-0.33 0.09,-0.21 0.13,-0.58 0.13,-1.11 0,-0.74 0.12,-1.29 0.37,-1.66 0.25,-0.38 0.62,-0.57 1.11,-0.57 0.44,0 0.8,0.19 1.09,0.57 0.29,0.38 0.43,0.88 0.43,1.48 0,0.45 -0.07,0.89 -0.19,1.33 -0.13,0.44 -0.31,0.85 -0.55,1.22z"/>
  </g>
  <g id="Aurea_x0020_Fine_x0020_Logo.cdr">
   <g>
    <path class="fil1" d="M915.07 503.54l5.41 0 5.63 0 -5.49 -10.82 -5.55 10.82zm-1.92 3.72l-3.64 7.18 -4.67 0 14.36 -28.24 2.78 0 14.47 28.24 -4.73 0 -3.66 -7.18 -14.91 0z"/>
   </g>
   <path class="fil1" d="M939.54 486.27l4.4 0 0 18.08c0,2.71 0.65,4.53 1.92,5.48 1.28,0.95 3.82,1.42 7.62,1.42 3.81,0 6.36,-0.47 7.64,-1.42 1.27,-0.95 1.92,-2.77 1.92,-5.48l0 -18.08 4.4 0 0 19.23c0,3.46 -1.1,5.96 -3.29,7.5 -2.2,1.55 -5.76,2.32 -10.73,2.32 -4.93,0 -8.48,-0.76 -10.64,-2.28 -2.15,-1.53 -3.24,-4.03 -3.24,-7.54l0 -19.23z"/>
   <path class="fil1" d="M981.6 497.99l15 0c1.53,0 2.69,-0.33 3.49,-1 0.8,-0.66 1.21,-1.61 1.21,-2.85 0,-1.23 -0.41,-2.18 -1.21,-2.82 -0.8,-0.66 -1.96,-0.98 -3.49,-0.98l-15 0 0 7.65zm0 4.12l0 12.33 -4.4 0 0 -28.17 19.4 0c2.89,0 5.15,0.7 6.79,2.09 1.63,1.39 2.44,3.32 2.44,5.79 0,2 -0.64,3.73 -1.94,5.2 -1.28,1.47 -2.96,2.37 -5.04,2.7l7.86 12.39 -4.79 0 -8.01 -12.33 -12.31 0z"/>
   <polygon class="fil1" points="1013.82,514.44 1013.82,486.21 1040.29,486.21 1040.29,490.34 1018.22,490.34 1018.22,497.38 1032.71,497.38 1032.71,501.44 1018.22,501.44 1018.22,510.37 1041.51,510.37 1041.51,514.44 "/>
   <path class="fil1" d="M1052.63 503.54l11.03 0 -5.48 -10.82 -5.55 10.82zm-10.24 10.9l14.37 -28.23 2.77 0 14.48 28.23 -4.73 0 -3.67 -7.18 -14.9 0 -3.65 7.18 -4.67 0z"/>
   <path class="fil5" d="M1026.5 524.53c-0.38,0.39 -0.8,0.8 -1.29,1.24 -0.48,0.43 -1.1,0.95 -1.85,1.56l0 -1.66c1.22,-1.08 2.16,-1.98 2.83,-2.7 0.66,-0.72 1.16,-1.37 1.5,-1.94l4.24 -11.71c0.23,-0.64 0.53,-1.5 0.91,-2.57 0.96,-2.85 1.72,-4.27 2.27,-4.27 0.23,0 0.42,0.1 0.59,0.29 0.16,0.2 0.24,0.42 0.24,0.7 0,0.3 -0.74,2.33 -2.21,6.09 -1.48,3.74 -2.81,7.28 -3.97,10.61l-6.44 18.13c-0.35,0.98 -0.59,1.7 -0.7,2.16 -0.11,0.47 -0.17,0.86 -0.17,1.18 0,0.26 0.06,0.49 0.18,0.67 0.12,0.19 0.27,0.27 0.45,0.27 0.91,0 1.98,-1.35 3.23,-4.06 1.24,-2.69 1.92,-5.66 2.04,-8.88 2.44,-1.48 4.61,-3.02 6.5,-4.63 1.89,-1.61 3,-2.76 3.34,-3.46l1.83 -3.7 1.73 0 -5.41 11.47c-0.06,0.1 -0.1,0.23 -0.14,0.36 -0.04,0.13 -0.06,0.23 -0.06,0.28 0,0.09 0.02,0.18 0.07,0.25 0.04,0.08 0.1,0.12 0.17,0.13 0.22,0 0.95,-0.44 2.18,-1.34 1.23,-0.89 2.87,-2.15 4.92,-3.77l0 1.65 -0.94 0.73c-4.45,3.44 -7.12,5.16 -8.05,5.16 -0.23,0 -0.42,-0.11 -0.59,-0.33 -0.15,-0.22 -0.24,-0.51 -0.24,-0.86 0,-0.17 0.05,-0.37 0.13,-0.62 0.09,-0.25 0.22,-0.53 0.37,-0.84l2.52 -4.93 -0.48 0.39c-2.46,2.04 -4.6,3.66 -6.44,4.89 -0.22,3.8 -1.08,7.07 -2.57,9.81 -1.51,2.74 -3.03,4.12 -4.57,4.12 -0.59,0 -1.05,-0.21 -1.38,-0.63 -0.32,-0.43 -0.48,-1.04 -0.48,-1.85 0,-0.44 0.07,-0.98 0.22,-1.62 0.13,-0.65 0.33,-1.33 0.57,-2.04l4.95 -13.73zm16.35 2.8l0 -1.66c1.06,-0.77 2,-1.56 2.8,-2.36 0.81,-0.8 1.3,-1.38 1.49,-1.76l1.82 -3.7 1.77 0 -4.94 10.38c3.92,-3.88 6.9,-6.65 8.93,-8.3 2.03,-1.66 3.45,-2.49 4.25,-2.49 0.2,0 0.36,0.09 0.47,0.26 0.1,0.18 0.16,0.44 0.16,0.77 0,0.17 -0.04,0.37 -0.11,0.59 -0.06,0.21 -0.2,0.55 -0.4,1.02l-4.24 9.22c-0.09,0.21 -0.16,0.36 -0.19,0.46 -0.04,0.09 -0.05,0.16 -0.05,0.2 0,0.11 0.02,0.2 0.07,0.26 0.05,0.07 0.1,0.11 0.17,0.12 0.23,0 0.98,-0.45 2.24,-1.36 1.26,-0.9 2.9,-2.15 4.9,-3.75l0 1.65 -0.95 0.73c-4.43,3.44 -7.11,5.16 -8.04,5.16 -0.23,0 -0.42,-0.11 -0.58,-0.33 -0.17,-0.22 -0.25,-0.51 -0.25,-0.86 0,-0.15 0.05,-0.35 0.14,-0.6 0.08,-0.25 0.2,-0.53 0.37,-0.86l4.02 -8.47c0.23,-0.46 0.37,-0.75 0.42,-0.86 0.06,-0.13 0.09,-0.22 0.09,-0.26 0,-0.13 -0.02,-0.22 -0.05,-0.28 -0.02,-0.06 -0.06,-0.09 -0.11,-0.09 -0.18,0 -0.69,0.32 -1.53,0.95 -0.84,0.62 -1.78,1.43 -2.84,2.39 -1.31,1.14 -2.53,2.3 -3.68,3.46 -1.14,1.17 -2.16,2.28 -3.05,3.34 -0.13,0.17 -0.32,0.39 -0.56,0.69 -0.86,1.11 -1.58,1.66 -2.16,1.66 -0.25,0 -0.45,-0.1 -0.6,-0.29 -0.15,-0.2 -0.22,-0.45 -0.22,-0.77 0,-0.4 0.61,-1.69 1.83,-3.9 0.58,-1.03 1.03,-1.87 1.37,-2.5 -0.51,0.47 -1,0.89 -1.45,1.24 -0.45,0.35 -0.89,0.66 -1.31,0.9zm32.5 -2.1l0 1.65c-3.03,2.43 -5.23,3.99 -6.58,4.7 -1.36,0.71 -2.61,1.07 -3.77,1.07 -1.34,0 -2.37,-0.4 -3.1,-1.19 -0.74,-0.81 -1.1,-1.94 -1.1,-3.42 0,-1.17 0.27,-2.33 0.82,-3.47 0.54,-1.14 1.34,-2.24 2.4,-3.3 1.17,-1.17 2.37,-2.08 3.57,-2.73 1.2,-0.65 2.29,-0.97 3.27,-0.97 0.83,0 1.48,0.2 1.94,0.59 0.46,0.39 0.69,0.95 0.69,1.66 0,1.85 -0.95,3.5 -2.84,4.96 -1.9,1.45 -4.19,2.18 -6.87,2.18 -0.3,0 -0.52,0 -0.66,0 -0.14,-0.01 -0.27,-0.02 -0.41,-0.04 -0.06,0.21 -0.11,0.42 -0.14,0.61 -0.03,0.18 -0.04,0.38 -0.04,0.58 0,0.99 0.23,1.74 0.69,2.25 0.45,0.51 1.12,0.77 2.01,0.77 1,0 2.14,-0.35 3.42,-1.04 1.27,-0.69 3.5,-2.31 6.7,-4.86zm-12.4 0.25c0.22,0.03 0.43,0.05 0.64,0.06 0.22,0.01 0.44,0.02 0.67,0.02 1.86,0 3.58,-0.62 5.15,-1.86 1.57,-1.24 2.35,-2.45 2.35,-3.65 0,-0.32 -0.11,-0.57 -0.33,-0.76 -0.22,-0.19 -0.52,-0.28 -0.9,-0.28 -1.07,0 -2.36,0.62 -3.86,1.85 -1.52,1.23 -2.75,2.77 -3.72,4.62z"/>
   <path class="fil1" d="M1027.58 524.53c-0.38,0.39 -0.8,0.8 -1.29,1.24 -0.48,0.43 -1.1,0.95 -1.85,1.56l0 -1.66c1.23,-1.08 2.17,-1.98 2.83,-2.7 0.66,-0.72 1.16,-1.37 1.5,-1.94l4.25 -11.71c0.22,-0.64 0.52,-1.5 0.9,-2.57 0.96,-2.85 1.73,-4.27 2.28,-4.27 0.22,0 0.42,0.1 0.58,0.29 0.16,0.2 0.24,0.42 0.24,0.7 0,0.3 -0.74,2.33 -2.21,6.09 -1.48,3.74 -2.8,7.28 -3.96,10.61l-6.45 18.13c-0.35,0.98 -0.58,1.7 -0.69,2.16 -0.12,0.47 -0.17,0.86 -0.17,1.18 0,0.26 0.06,0.49 0.17,0.67 0.13,0.19 0.27,0.27 0.45,0.27 0.92,0 1.99,-1.35 3.23,-4.06 1.24,-2.69 1.92,-5.66 2.04,-8.88 2.45,-1.48 4.61,-3.02 6.5,-4.63 1.9,-1.61 3.01,-2.76 3.34,-3.46l1.83 -3.7 1.73 0 -5.41 11.47c-0.06,0.1 -0.1,0.23 -0.14,0.36 -0.04,0.13 -0.06,0.23 -0.06,0.28 0,0.09 0.02,0.18 0.07,0.25 0.05,0.08 0.1,0.12 0.17,0.13 0.23,0 0.96,-0.44 2.19,-1.34 1.22,-0.89 2.86,-2.15 4.91,-3.77l0 1.65 -0.94 0.73c-4.44,3.44 -7.12,5.16 -8.05,5.16 -0.23,0 -0.42,-0.11 -0.58,-0.33 -0.16,-0.22 -0.24,-0.51 -0.24,-0.86 0,-0.17 0.04,-0.37 0.13,-0.62 0.09,-0.25 0.21,-0.53 0.37,-0.84l2.51 -4.93 -0.48 0.39c-2.46,2.04 -4.6,3.66 -6.43,4.89 -0.22,3.8 -1.08,7.07 -2.58,9.81 -1.5,2.74 -3.03,4.12 -4.57,4.12 -0.59,0 -1.05,-0.21 -1.37,-0.63 -0.33,-0.43 -0.48,-1.04 -0.48,-1.85 0,-0.44 0.06,-0.98 0.21,-1.62 0.14,-0.65 0.33,-1.33 0.57,-2.04l4.95 -13.73zm16.35 2.8l0 -1.66c1.07,-0.77 2,-1.56 2.8,-2.36 0.81,-0.8 1.3,-1.38 1.5,-1.76l1.81 -3.7 1.77 0 -4.94 10.38c3.92,-3.88 6.9,-6.65 8.93,-8.3 2.03,-1.66 3.45,-2.49 4.25,-2.49 0.2,0 0.36,0.09 0.47,0.26 0.11,0.18 0.16,0.44 0.16,0.77 0,0.17 -0.03,0.37 -0.1,0.59 -0.06,0.21 -0.2,0.55 -0.4,1.02l-4.25 9.22c-0.09,0.21 -0.15,0.36 -0.19,0.46 -0.03,0.09 -0.05,0.16 -0.05,0.2 0,0.11 0.02,0.2 0.07,0.26 0.05,0.07 0.1,0.11 0.17,0.12 0.23,0 0.98,-0.45 2.24,-1.36 1.27,-0.9 2.9,-2.15 4.9,-3.75l0 1.65 -0.95 0.73c-4.43,3.44 -7.11,5.16 -8.03,5.16 -0.24,0 -0.43,-0.11 -0.59,-0.33 -0.16,-0.22 -0.25,-0.51 -0.25,-0.86 0,-0.15 0.05,-0.35 0.14,-0.6 0.08,-0.25 0.21,-0.53 0.37,-0.86l4.03 -8.47c0.22,-0.46 0.36,-0.75 0.42,-0.86 0.05,-0.13 0.08,-0.22 0.08,-0.26 0,-0.13 -0.01,-0.22 -0.04,-0.28 -0.03,-0.06 -0.07,-0.09 -0.12,-0.09 -0.18,0 -0.69,0.32 -1.52,0.95 -0.84,0.62 -1.79,1.43 -2.85,2.39 -1.3,1.14 -2.53,2.3 -3.67,3.46 -1.15,1.17 -2.17,2.28 -3.05,3.34 -0.14,0.17 -0.33,0.39 -0.57,0.69 -0.85,1.11 -1.58,1.66 -2.15,1.66 -0.26,0 -0.46,-0.1 -0.61,-0.29 -0.14,-0.2 -0.22,-0.45 -0.22,-0.77 0,-0.4 0.61,-1.69 1.84,-3.9 0.57,-1.03 1.03,-1.87 1.36,-2.5 -0.5,0.47 -0.99,0.89 -1.45,1.24 -0.45,0.35 -0.89,0.66 -1.31,0.9zm32.5 -2.1l0 1.65c-3.03,2.43 -5.23,3.99 -6.58,4.7 -1.35,0.71 -2.61,1.07 -3.76,1.07 -1.34,0 -2.38,-0.4 -3.11,-1.19 -0.73,-0.81 -1.1,-1.94 -1.1,-3.42 0,-1.17 0.28,-2.33 0.82,-3.47 0.54,-1.14 1.34,-2.24 2.4,-3.3 1.18,-1.17 2.37,-2.08 3.57,-2.73 1.2,-0.65 2.29,-0.97 3.27,-0.97 0.83,0 1.48,0.2 1.94,0.59 0.46,0.39 0.7,0.95 0.7,1.66 0,1.85 -0.95,3.5 -2.85,4.96 -1.9,1.45 -4.19,2.18 -6.87,2.18 -0.29,0 -0.51,0 -0.66,0 -0.13,-0.01 -0.27,-0.02 -0.41,-0.04 -0.06,0.21 -0.11,0.42 -0.14,0.61 -0.02,0.18 -0.04,0.38 -0.04,0.58 0,0.99 0.23,1.74 0.69,2.25 0.45,0.51 1.13,0.77 2.01,0.77 1.01,0 2.15,-0.35 3.42,-1.04 1.27,-0.69 3.51,-2.31 6.7,-4.86zm-12.4 0.25c0.22,0.03 0.43,0.05 0.65,0.06 0.21,0.01 0.44,0.02 0.66,0.02 1.87,0 3.58,-0.62 5.15,-1.86 1.57,-1.24 2.36,-2.45 2.36,-3.65 0,-0.32 -0.11,-0.57 -0.33,-0.76 -0.23,-0.19 -0.53,-0.28 -0.9,-0.28 -1.08,0 -2.37,0.62 -3.87,1.85 -1.51,1.23 -2.75,2.77 -3.72,4.62z"/>
   <path class="fil6" d="M1043.01 515.42c0.44,0.3 0.52,0.94 0.18,1.44 -0.34,0.5 -0.97,0.67 -1.41,0.37 -0.44,-0.3 -0.51,-0.94 -0.17,-1.44 0.34,-0.5 0.97,-0.67 1.4,-0.37z"/>
  </g>
  <rect class="fil0 str1" x="655.07" y="660.94" width="158.96" height="44.59"/>
  <path class="fil1" d="M698.93 675.28l0 16.63 8.56 0 0 -1.9 -6.54 0 0 -14.73 -2.02 0zm11.17 8.32c0,-1.25 0.27,-2.37 0.82,-3.35 0.54,-0.98 1.29,-1.76 2.24,-2.33 0.95,-0.57 2.03,-0.85 3.23,-0.85 1.22,0 2.31,0.28 3.25,0.85 0.94,0.57 1.68,1.35 2.23,2.33 0.55,0.98 0.82,2.1 0.82,3.35 0,1.25 -0.27,2.37 -0.82,3.35 -0.55,0.98 -1.29,1.76 -2.23,2.33 -0.94,0.57 -2.03,0.85 -3.25,0.85 -1.2,0 -2.28,-0.28 -3.23,-0.85 -0.95,-0.57 -1.7,-1.35 -2.24,-2.33 -0.55,-0.98 -0.82,-2.1 -0.82,-3.35zm-2.14 0c0,1.2 0.21,2.33 0.63,3.37 0.42,1.05 1.01,1.95 1.77,2.72 0.76,0.77 1.66,1.37 2.69,1.81 1.03,0.43 2.14,0.65 3.34,0.65 1.22,0 2.34,-0.22 3.37,-0.65 1.02,-0.44 1.91,-1.04 2.67,-1.81 0.76,-0.77 1.35,-1.67 1.77,-2.72 0.42,-1.04 0.63,-2.17 0.63,-3.37 0,-1.22 -0.21,-2.35 -0.63,-3.39 -0.42,-1.03 -1.01,-1.94 -1.77,-2.7 -0.76,-0.77 -1.65,-1.37 -2.67,-1.81 -1.03,-0.44 -2.15,-0.65 -3.37,-0.65 -1.2,0 -2.31,0.21 -3.34,0.65 -1.03,0.44 -1.93,1.04 -2.69,1.81 -0.76,0.76 -1.35,1.67 -1.77,2.7 -0.42,1.04 -0.63,2.17 -0.63,3.39zm27.44 1.78l5.54 0c-0.15,0.65 -0.37,1.26 -0.68,1.83 -0.31,0.57 -0.7,1.08 -1.18,1.52 -0.47,0.44 -1.04,0.79 -1.7,1.03 -0.65,0.25 -1.39,0.37 -2.22,0.37 -1.17,0 -2.23,-0.27 -3.18,-0.83 -0.95,-0.55 -1.71,-1.32 -2.27,-2.3 -0.56,-0.99 -0.84,-2.12 -0.84,-3.4 0,-1.3 0.28,-2.44 0.84,-3.41 0.56,-0.97 1.32,-1.74 2.27,-2.29 0.95,-0.56 2.01,-0.83 3.18,-0.83 1.27,0 2.37,0.25 3.31,0.74 0.93,0.5 1.66,1.2 2.18,2.08l1.43 -1.3c-0.48,-0.78 -1.06,-1.43 -1.75,-1.95 -0.69,-0.52 -1.47,-0.92 -2.33,-1.19 -0.86,-0.27 -1.81,-0.4 -2.84,-0.4 -1.2,0 -2.32,0.21 -3.35,0.63 -1.03,0.42 -1.92,1.01 -2.68,1.78 -0.76,0.77 -1.35,1.67 -1.77,2.72 -0.42,1.04 -0.63,2.18 -0.63,3.42 0,1.23 0.21,2.38 0.63,3.42 0.42,1.05 1.01,1.95 1.77,2.72 0.76,0.77 1.65,1.36 2.68,1.78 1.03,0.42 2.15,0.63 3.35,0.63 1.27,0 2.4,-0.23 3.39,-0.7 0.99,-0.47 1.82,-1.1 2.5,-1.91 0.69,-0.81 1.2,-1.73 1.55,-2.77 0.35,-1.04 0.52,-2.13 0.52,-3.29l-7.72 0 0 1.9zm10.69 -10.1l0 16.63 2.02 0 0 -16.63 -2.02 0zm18.41 0l0 12.38 -12.59 -13.21 0 17.46 2.02 0 0 -12.37 12.59 13.21 0 -17.47 -2.02 0z"/>
  <path class="fil1" d="M642.61 413.11l0 5.1c0,0.38 0.06,0.72 0.17,1.04 0.12,0.32 0.3,0.59 0.53,0.82 0.22,0.24 0.5,0.42 0.82,0.55 0.31,0.13 0.67,0.19 1.06,0.19 0.39,0 0.74,-0.06 1.06,-0.19 0.32,-0.13 0.59,-0.31 0.82,-0.55 0.23,-0.23 0.4,-0.5 0.52,-0.82 0.12,-0.32 0.18,-0.66 0.18,-1.04l0 -5.1 -0.92 0 0 5.1c0,0.52 -0.14,0.94 -0.42,1.26 -0.29,0.32 -0.7,0.47 -1.24,0.47 -0.54,0 -0.96,-0.15 -1.24,-0.47 -0.28,-0.32 -0.42,-0.74 -0.42,-1.26l0 -5.1 -0.92 0z"/>
  <path id="_1" class="fil1" d="M649.73 418.4l-0.73 0.5c0.16,0.34 0.38,0.65 0.64,0.94 0.26,0.3 0.57,0.53 0.92,0.71 0.35,0.17 0.73,0.26 1.15,0.26 0.3,0 0.59,-0.05 0.87,-0.15 0.28,-0.1 0.53,-0.24 0.75,-0.43 0.22,-0.19 0.39,-0.42 0.52,-0.69 0.13,-0.26 0.19,-0.56 0.19,-0.9 0,-0.34 -0.06,-0.64 -0.19,-0.89 -0.12,-0.25 -0.28,-0.46 -0.47,-0.64 -0.19,-0.18 -0.4,-0.32 -0.62,-0.44 -0.23,-0.12 -0.44,-0.21 -0.64,-0.28 -0.44,-0.15 -0.79,-0.31 -1.05,-0.46 -0.25,-0.16 -0.44,-0.33 -0.55,-0.5 -0.1,-0.18 -0.16,-0.37 -0.16,-0.58 0,-0.25 0.1,-0.47 0.28,-0.67 0.19,-0.2 0.49,-0.3 0.9,-0.3 0.3,0 0.55,0.06 0.76,0.17 0.2,0.12 0.38,0.27 0.52,0.45 0.15,0.18 0.27,0.37 0.36,0.55l0.79 -0.45c-0.12,-0.27 -0.29,-0.53 -0.51,-0.77 -0.21,-0.24 -0.48,-0.44 -0.78,-0.59 -0.31,-0.16 -0.67,-0.24 -1.08,-0.24 -0.43,0 -0.81,0.09 -1.14,0.26 -0.33,0.17 -0.59,0.4 -0.78,0.7 -0.19,0.29 -0.28,0.63 -0.28,1.01 0,0.34 0.06,0.64 0.2,0.88 0.13,0.23 0.3,0.43 0.51,0.6 0.21,0.16 0.43,0.29 0.66,0.4 0.24,0.1 0.45,0.19 0.63,0.25 0.29,0.1 0.57,0.22 0.82,0.34 0.26,0.13 0.47,0.3 0.63,0.5 0.16,0.2 0.23,0.47 0.23,0.81 0,0.35 -0.12,0.64 -0.36,0.86 -0.25,0.22 -0.58,0.33 -0.98,0.33 -0.3,0 -0.58,-0.06 -0.81,-0.19 -0.24,-0.13 -0.46,-0.31 -0.65,-0.54 -0.19,-0.23 -0.37,-0.5 -0.55,-0.81z"/>
  <path id="_2" class="fil1" d="M655.94 416.91c0,-0.57 0.12,-1.08 0.37,-1.53 0.25,-0.45 0.59,-0.8 1.03,-1.06 0.43,-0.27 0.92,-0.4 1.47,-0.4 0.56,0 1.05,0.13 1.48,0.4 0.43,0.26 0.77,0.61 1.02,1.06 0.25,0.45 0.38,0.96 0.38,1.53 0,0.57 -0.13,1.08 -0.38,1.53 -0.25,0.45 -0.59,0.8 -1.02,1.06 -0.43,0.26 -0.92,0.39 -1.48,0.39 -0.55,0 -1.04,-0.13 -1.47,-0.39 -0.44,-0.26 -0.78,-0.61 -1.03,-1.06 -0.25,-0.45 -0.37,-0.96 -0.37,-1.53zm-0.98 0c0,0.55 0.1,1.06 0.29,1.54 0.19,0.48 0.46,0.89 0.81,1.24 0.34,0.35 0.75,0.63 1.22,0.82 0.47,0.2 0.98,0.3 1.53,0.3 0.56,0 1.07,-0.1 1.54,-0.3 0.46,-0.19 0.87,-0.47 1.22,-0.82 0.34,-0.35 0.61,-0.76 0.81,-1.24 0.19,-0.48 0.28,-0.99 0.28,-1.54 0,-0.56 -0.09,-1.07 -0.28,-1.55 -0.2,-0.47 -0.47,-0.88 -0.81,-1.23 -0.35,-0.36 -0.76,-0.63 -1.22,-0.83 -0.47,-0.2 -0.98,-0.3 -1.54,-0.3 -0.55,0 -1.06,0.1 -1.53,0.3 -0.47,0.2 -0.88,0.47 -1.22,0.83 -0.35,0.35 -0.62,0.76 -0.81,1.23 -0.19,0.48 -0.29,0.99 -0.29,1.55z"/>
  <path id="_3" class="fil1" d="M667.73 420.7l3.83 0 0 -0.86 -3.83 0 0 0.86zm0 -6.72l3.83 0 0 -0.87 -3.83 0 0 0.87zm0 3.04l3.61 0 0 -0.87 -3.61 0 0 0.87zm-0.51 -3.91l0 7.59 0.92 0 0 -7.59 -0.92 0z"/>
  <polygon id="_4" class="fil1" points="676.98,413.11 675.36,415.92 673.78,413.11 672.7,413.11 674.9,416.72 672.42,420.7 673.51,420.7 675.35,417.53 677.14,420.7 678.23,420.7 675.82,416.72 678.07,413.11 "/>
  <path id="_5" class="fil1" d="M679.2 416.91c0,-0.59 0.14,-1.11 0.4,-1.56 0.26,-0.44 0.61,-0.79 1.04,-1.05 0.42,-0.25 0.89,-0.38 1.38,-0.38 0.37,0 0.7,0.05 1,0.15 0.3,0.09 0.57,0.22 0.82,0.39 0.24,0.17 0.45,0.37 0.62,0.59l0 -1.21c-0.31,-0.28 -0.66,-0.49 -1.04,-0.63 -0.37,-0.14 -0.84,-0.21 -1.4,-0.21 -0.52,0 -1.02,0.1 -1.48,0.29 -0.46,0.19 -0.86,0.46 -1.21,0.81 -0.34,0.35 -0.61,0.77 -0.81,1.25 -0.19,0.47 -0.29,0.99 -0.29,1.56 0,0.56 0.1,1.08 0.29,1.56 0.2,0.48 0.47,0.89 0.81,1.24 0.35,0.35 0.75,0.62 1.21,0.81 0.46,0.2 0.96,0.29 1.48,0.29 0.56,0 1.03,-0.07 1.4,-0.2 0.38,-0.14 0.73,-0.35 1.04,-0.63l0 -1.22c-0.17,0.23 -0.38,0.42 -0.62,0.59 -0.25,0.17 -0.52,0.31 -0.82,0.4 -0.3,0.09 -0.63,0.14 -1,0.14 -0.49,0 -0.96,-0.13 -1.38,-0.38 -0.43,-0.25 -0.78,-0.6 -1.04,-1.05 -0.26,-0.45 -0.4,-0.97 -0.4,-1.55z"/>
  <polygon id="_6" class="fil1" points="686.09,413.11 686.09,420.7 690,420.7 690,419.84 687.01,419.84 687.01,413.11 "/>
  <path id="_7" class="fil1" d="M690.92 413.11l0 5.1c0,0.38 0.06,0.72 0.18,1.04 0.12,0.32 0.29,0.59 0.52,0.82 0.23,0.24 0.5,0.42 0.82,0.55 0.32,0.13 0.67,0.19 1.06,0.19 0.39,0 0.75,-0.06 1.06,-0.19 0.32,-0.13 0.6,-0.31 0.82,-0.55 0.23,-0.23 0.4,-0.5 0.52,-0.82 0.12,-0.32 0.18,-0.66 0.18,-1.04l0 -5.1 -0.92 0 0 5.1c0,0.52 -0.14,0.94 -0.42,1.26 -0.28,0.32 -0.7,0.47 -1.24,0.47 -0.54,0 -0.95,-0.15 -1.24,-0.47 -0.28,-0.32 -0.42,-0.74 -0.42,-1.26l0 -5.1 -0.92 0z"/>
  <path id="_8" class="fil1" d="M698.05 418.4l-0.74 0.5c0.16,0.34 0.38,0.65 0.64,0.94 0.27,0.3 0.57,0.53 0.93,0.71 0.35,0.17 0.73,0.26 1.14,0.26 0.3,0 0.6,-0.05 0.87,-0.15 0.28,-0.1 0.53,-0.24 0.75,-0.43 0.22,-0.19 0.4,-0.42 0.52,-0.69 0.13,-0.26 0.19,-0.56 0.19,-0.9 0,-0.34 -0.06,-0.64 -0.18,-0.89 -0.13,-0.25 -0.28,-0.46 -0.47,-0.64 -0.2,-0.18 -0.4,-0.32 -0.63,-0.44 -0.22,-0.12 -0.44,-0.21 -0.64,-0.28 -0.44,-0.15 -0.79,-0.31 -1.04,-0.46 -0.26,-0.16 -0.44,-0.33 -0.55,-0.5 -0.11,-0.18 -0.17,-0.37 -0.17,-0.58 0,-0.25 0.1,-0.47 0.29,-0.67 0.18,-0.2 0.48,-0.3 0.9,-0.3 0.29,0 0.55,0.06 0.75,0.17 0.21,0.12 0.38,0.27 0.53,0.45 0.14,0.18 0.26,0.37 0.36,0.55l0.79 -0.45c-0.13,-0.27 -0.3,-0.53 -0.51,-0.77 -0.22,-0.24 -0.48,-0.44 -0.79,-0.59 -0.31,-0.16 -0.67,-0.24 -1.08,-0.24 -0.42,0 -0.81,0.09 -1.14,0.26 -0.33,0.17 -0.59,0.4 -0.78,0.7 -0.19,0.29 -0.28,0.63 -0.28,1.01 0,0.34 0.07,0.64 0.2,0.88 0.13,0.23 0.31,0.43 0.52,0.6 0.21,0.16 0.43,0.29 0.66,0.4 0.23,0.1 0.44,0.19 0.63,0.25 0.29,0.1 0.56,0.22 0.82,0.34 0.25,0.13 0.46,0.3 0.62,0.5 0.16,0.2 0.24,0.47 0.24,0.81 0,0.35 -0.13,0.64 -0.37,0.86 -0.25,0.22 -0.57,0.33 -0.98,0.33 -0.3,0 -0.57,-0.06 -0.81,-0.19 -0.24,-0.13 -0.45,-0.31 -0.65,-0.54 -0.19,-0.23 -0.37,-0.5 -0.54,-0.81z"/>
  <polygon id="_9" class="fil1" points="703.71,413.11 703.71,420.7 704.63,420.7 704.63,413.11 "/>
  <polygon id="_10" class="fil1" points="709.08,418.99 706.58,413.11 705.55,413.11 709.08,421.08 712.6,413.11 711.57,413.11 "/>
  <path id="_11" class="fil1" d="M713.91 416.91c0,-0.57 0.12,-1.08 0.37,-1.53 0.25,-0.45 0.59,-0.8 1.02,-1.06 0.44,-0.27 0.93,-0.4 1.48,-0.4 0.56,0 1.05,0.13 1.48,0.4 0.43,0.26 0.77,0.61 1.02,1.06 0.25,0.45 0.37,0.96 0.37,1.53 0,0.57 -0.12,1.08 -0.37,1.53 -0.25,0.45 -0.59,0.8 -1.02,1.06 -0.43,0.26 -0.92,0.39 -1.48,0.39 -0.55,0 -1.04,-0.13 -1.48,-0.39 -0.43,-0.26 -0.77,-0.61 -1.02,-1.06 -0.25,-0.45 -0.37,-0.96 -0.37,-1.53zm-0.98 0c0,0.55 0.09,1.06 0.29,1.54 0.19,0.48 0.46,0.89 0.8,1.24 0.35,0.35 0.76,0.63 1.23,0.82 0.47,0.2 0.98,0.3 1.53,0.3 0.56,0 1.07,-0.1 1.53,-0.3 0.47,-0.19 0.88,-0.47 1.22,-0.82 0.35,-0.35 0.62,-0.76 0.81,-1.24 0.19,-0.48 0.29,-0.99 0.29,-1.54 0,-0.56 -0.1,-1.07 -0.29,-1.55 -0.19,-0.47 -0.46,-0.88 -0.81,-1.23 -0.34,-0.36 -0.75,-0.63 -1.22,-0.83 -0.46,-0.2 -0.97,-0.3 -1.53,-0.3 -0.55,0 -1.06,0.1 -1.53,0.3 -0.47,0.2 -0.88,0.47 -1.23,0.83 -0.34,0.35 -0.61,0.76 -0.8,1.23 -0.2,0.48 -0.29,0.99 -0.29,1.55z"/>
  <path id="_12" class="fil1" d="M725.19 413.11l0 7.59 0.92 0 0 -7.59 -0.92 0zm0.5 0.87l1.56 0c0.49,0 0.89,0.12 1.2,0.35 0.3,0.24 0.46,0.59 0.46,1.06 0,0.46 -0.16,0.81 -0.46,1.05 -0.31,0.24 -0.71,0.36 -1.2,0.36l-1.56 0 0 0.87 1.56 0c0.49,0 0.93,-0.1 1.31,-0.28 0.39,-0.18 0.7,-0.45 0.93,-0.79 0.22,-0.34 0.34,-0.75 0.34,-1.21 0,-0.47 -0.12,-0.88 -0.34,-1.22 -0.23,-0.34 -0.54,-0.6 -0.93,-0.78 -0.38,-0.19 -0.82,-0.28 -1.31,-0.28l-1.56 0 0 0.87z"/>
  <path id="_13" class="fil1" d="M731.1 418.43l4.01 0 -0.32 -0.87 -3.37 0 -0.32 0.87zm1.98 -3.61l1.3 3.06 0.09 0.22 1.11 2.6 1.03 0 -3.53 -7.97 -3.52 7.97 1.03 0 1.13 -2.66 0.08 -0.2 1.28 -3.02z"/>
  <path id="_14" class="fil1" d="M738.89 416.96l2.6 3.74 1.14 0 -2.71 -3.74 -1.03 0zm-1.36 -3.85l0 7.59 0.92 0 0 -7.59 -0.92 0zm0.51 0.81l1.55 0c0.33,0 0.61,0.06 0.86,0.18 0.25,0.11 0.45,0.28 0.59,0.5 0.14,0.21 0.21,0.48 0.21,0.79 0,0.31 -0.07,0.57 -0.21,0.79 -0.14,0.22 -0.34,0.38 -0.59,0.5 -0.25,0.12 -0.53,0.17 -0.86,0.17l-1.55 0 0 0.82 1.55 0c0.49,0 0.93,-0.1 1.32,-0.28 0.38,-0.18 0.69,-0.45 0.92,-0.79 0.23,-0.34 0.34,-0.75 0.34,-1.21 0,-0.47 -0.11,-0.88 -0.34,-1.22 -0.23,-0.34 -0.54,-0.6 -0.92,-0.78 -0.39,-0.19 -0.83,-0.28 -1.32,-0.28l-1.55 0 0 0.81z"/>
  <path id="_15" class="fil1" d="M744.33 418.43l4.01 0 -0.32 -0.87 -3.36 0 -0.33 0.87zm1.99 -3.61l1.3 3.06 0.08 0.22 1.11 2.6 1.03 0 -3.52 -7.97 -3.53 7.97 1.03 0 1.13 -2.66 0.09 -0.2 1.28 -3.02z"/>
  <path id="_16" class="fil1" d="M754.53 420.7l3.82 0 0 -0.86 -3.82 0 0 0.86zm0 -6.72l3.82 0 0 -0.87 -3.82 0 0 0.87zm0 3.04l3.61 0 0 -0.87 -3.61 0 0 0.87zm-0.51 -3.91l0 7.59 0.92 0 0 -7.59 -0.92 0z"/>
  <polygon id="_17" class="fil1" points="761.03,415.57 763.51,420 765.98,415.57 766.54,420.7 767.47,420.7 766.54,412.73 763.51,418.23 760.47,412.73 759.55,420.7 760.47,420.7 "/>
  <path id="_18" class="fil1" d="M768.77 413.11l0 7.59 0.92 0 0 -7.59 -0.92 0zm0.51 0.87l1.55 0c0.49,0 0.89,0.12 1.2,0.35 0.31,0.24 0.46,0.59 0.46,1.06 0,0.46 -0.15,0.81 -0.46,1.05 -0.31,0.24 -0.71,0.36 -1.2,0.36l-1.55 0 0 0.87 1.55 0c0.49,0 0.93,-0.1 1.32,-0.28 0.38,-0.18 0.69,-0.45 0.92,-0.79 0.23,-0.34 0.34,-0.75 0.34,-1.21 0,-0.47 -0.11,-0.88 -0.34,-1.22 -0.23,-0.34 -0.54,-0.6 -0.92,-0.78 -0.39,-0.19 -0.83,-0.28 -1.32,-0.28l-1.55 0 0 0.87z"/>
  <path id="_19" class="fil1" d="M776.07 416.96l2.6 3.74 1.14 0 -2.71 -3.74 -1.03 0zm-1.36 -3.85l0 7.59 0.92 0 0 -7.59 -0.92 0zm0.51 0.81l1.55 0c0.33,0 0.62,0.06 0.87,0.18 0.25,0.11 0.44,0.28 0.58,0.5 0.14,0.21 0.21,0.48 0.21,0.79 0,0.31 -0.07,0.57 -0.21,0.79 -0.14,0.22 -0.33,0.38 -0.58,0.5 -0.25,0.12 -0.54,0.17 -0.87,0.17l-1.55 0 0 0.82 1.55 0c0.5,0 0.93,-0.1 1.32,-0.28 0.39,-0.18 0.7,-0.45 0.92,-0.79 0.23,-0.34 0.34,-0.75 0.34,-1.21 0,-0.47 -0.11,-0.88 -0.34,-1.22 -0.22,-0.34 -0.53,-0.6 -0.92,-0.78 -0.39,-0.19 -0.82,-0.28 -1.32,-0.28l-1.55 0 0 0.81z"/>
  <path id="_20" class="fil1" d="M781.3 420.7l3.83 0 0 -0.86 -3.83 0 0 0.86zm0 -6.72l3.83 0 0 -0.87 -3.83 0 0 0.87zm0 3.04l3.61 0 0 -0.87 -3.61 0 0 0.87zm-0.51 -3.91l0 7.59 0.92 0 0 -7.59 -0.92 0z"/>
  <path id="_21" class="fil1" d="M787.04 418.4l-0.74 0.5c0.16,0.34 0.38,0.65 0.64,0.94 0.27,0.3 0.57,0.53 0.92,0.71 0.36,0.17 0.74,0.26 1.15,0.26 0.3,0 0.59,-0.05 0.87,-0.15 0.28,-0.1 0.53,-0.24 0.75,-0.43 0.22,-0.19 0.4,-0.42 0.52,-0.69 0.13,-0.26 0.19,-0.56 0.19,-0.9 0,-0.34 -0.06,-0.64 -0.18,-0.89 -0.13,-0.25 -0.28,-0.46 -0.47,-0.64 -0.2,-0.18 -0.4,-0.32 -0.63,-0.44 -0.22,-0.12 -0.44,-0.21 -0.64,-0.28 -0.44,-0.15 -0.79,-0.31 -1.05,-0.46 -0.25,-0.16 -0.43,-0.33 -0.54,-0.5 -0.11,-0.18 -0.17,-0.37 -0.17,-0.58 0,-0.25 0.1,-0.47 0.29,-0.67 0.18,-0.2 0.48,-0.3 0.9,-0.3 0.29,0 0.54,0.06 0.75,0.17 0.21,0.12 0.38,0.27 0.53,0.45 0.14,0.18 0.26,0.37 0.35,0.55l0.8 -0.45c-0.13,-0.27 -0.3,-0.53 -0.51,-0.77 -0.22,-0.24 -0.48,-0.44 -0.79,-0.59 -0.31,-0.16 -0.67,-0.24 -1.08,-0.24 -0.43,0 -0.81,0.09 -1.14,0.26 -0.33,0.17 -0.59,0.4 -0.78,0.7 -0.19,0.29 -0.28,0.63 -0.28,1.01 0,0.34 0.07,0.64 0.2,0.88 0.13,0.23 0.3,0.43 0.51,0.6 0.21,0.16 0.43,0.29 0.67,0.4 0.23,0.1 0.44,0.19 0.63,0.25 0.28,0.1 0.56,0.22 0.81,0.34 0.26,0.13 0.47,0.3 0.63,0.5 0.16,0.2 0.24,0.47 0.24,0.81 0,0.35 -0.13,0.64 -0.37,0.86 -0.25,0.22 -0.57,0.33 -0.98,0.33 -0.3,0 -0.57,-0.06 -0.81,-0.19 -0.24,-0.13 -0.46,-0.31 -0.65,-0.54 -0.19,-0.23 -0.37,-0.5 -0.54,-0.81z"/>
  <path id="_22" class="fil1" d="M793.42 418.43l4.02 0 -0.33 -0.87 -3.36 0 -0.33 0.87zm1.99 -3.61l1.3 3.06 0.09 0.22 1.1 2.6 1.04 0 -3.53 -7.97 -3.53 7.97 1.03 0 1.13 -2.66 0.09 -0.2 1.28 -3.02z"/>
  <path id="_23" class="fil1" d="M800.14 418.4l-0.74 0.5c0.17,0.34 0.38,0.65 0.65,0.94 0.26,0.3 0.57,0.53 0.92,0.71 0.35,0.17 0.73,0.26 1.14,0.26 0.31,0 0.6,-0.05 0.88,-0.15 0.27,-0.1 0.52,-0.24 0.74,-0.43 0.22,-0.19 0.4,-0.42 0.52,-0.69 0.13,-0.26 0.19,-0.56 0.19,-0.9 0,-0.34 -0.06,-0.64 -0.18,-0.89 -0.12,-0.25 -0.28,-0.46 -0.47,-0.64 -0.19,-0.18 -0.4,-0.32 -0.63,-0.44 -0.22,-0.12 -0.43,-0.21 -0.64,-0.28 -0.44,-0.15 -0.79,-0.31 -1.04,-0.46 -0.26,-0.16 -0.44,-0.33 -0.55,-0.5 -0.11,-0.18 -0.16,-0.37 -0.16,-0.58 0,-0.25 0.09,-0.47 0.28,-0.67 0.19,-0.2 0.49,-0.3 0.9,-0.3 0.3,0 0.55,0.06 0.75,0.17 0.21,0.12 0.38,0.27 0.53,0.45 0.14,0.18 0.26,0.37 0.36,0.55l0.79 -0.45c-0.12,-0.27 -0.29,-0.53 -0.51,-0.77 -0.22,-0.24 -0.48,-0.44 -0.79,-0.59 -0.3,-0.16 -0.66,-0.24 -1.08,-0.24 -0.42,0 -0.8,0.09 -1.13,0.26 -0.34,0.17 -0.6,0.4 -0.79,0.7 -0.18,0.29 -0.28,0.63 -0.28,1.01 0,0.34 0.07,0.64 0.2,0.88 0.14,0.23 0.31,0.43 0.52,0.6 0.21,0.16 0.43,0.29 0.66,0.4 0.23,0.1 0.44,0.19 0.63,0.25 0.29,0.1 0.56,0.22 0.82,0.34 0.25,0.13 0.46,0.3 0.62,0.5 0.16,0.2 0.24,0.47 0.24,0.81 0,0.35 -0.12,0.64 -0.37,0.86 -0.24,0.22 -0.57,0.33 -0.97,0.33 -0.31,0 -0.58,-0.06 -0.82,-0.19 -0.24,-0.13 -0.45,-0.31 -0.64,-0.54 -0.2,-0.23 -0.38,-0.5 -0.55,-0.81z"/>
 </g>
</svg>
